fontCallback.success({"glyphs":{"S":{"x_min":94,"x_max":744,"ha":836,"o":"m 686 978 l 686 839 q 560 899 623 879 q 434 920 497 920 q 281 874 337 920 q 225 752 225 829 q 261 650 225 685 q 399 591 298 615 l 471 575 q 678 470 613 541 q 744 276 744 399 q 654 56 744 132 q 394 -20 564 -20 q 250 -4 322 -20 q 106 40 178 10 l 106 186 q 254 114 184 137 q 394 91 323 91 q 555 137 497 91 q 613 267 613 184 q 573 383 613 343 q 435 445 533 423 l 362 462 q 157 558 221 494 q 94 731 94 623 q 185 949 94 867 q 427 1031 276 1031 q 550 1017 486 1031 q 686 978 614 1004 "},"Â¦":{"x_min":359,"x_max":476,"ha":836,"o":"m 476 972 l 476 458 l 359 458 l 359 972 l 476 972 m 476 277 l 476 -237 l 359 -237 l 359 277 l 476 277 "},"/":{"x_min":69.171875,"x_max":731.75,"ha":836,"o":"m 602 1013 l 731 1013 l 198 -129 l 69 -129 l 602 1013 "},"y":{"x_min":70.75,"x_max":782.140625,"ha":836,"o":"m 582 243 q 502 34 550 164 q 412 -183 435 -144 q 334 -262 381 -236 q 225 -289 287 -289 l 125 -289 l 125 -185 l 198 -185 q 285 -153 253 -185 q 364 11 316 -121 l 70 759 l 202 759 l 428 165 l 649 760 l 782 760 l 582 243 "},"â‰ˆ":{"x_min":60,"x_max":777,"ha":836,"o":"m 777 654 l 777 534 q 677 475 726 494 q 575 457 629 457 q 437 491 514 457 q 415 501 422 498 q 328 532 363 524 q 258 541 293 541 q 157 520 205 541 q 60 457 109 500 l 60 575 q 162 635 112 616 q 268 654 211 654 q 338 646 304 654 q 422 617 372 638 q 444 606 429 614 q 586 570 523 570 q 680 590 633 570 q 777 654 726 610 m 777 405 l 777 285 q 677 226 726 245 q 575 207 629 207 q 437 241 514 207 q 415 251 422 248 q 325 284 359 276 q 258 292 291 292 q 158 271 205 292 q 60 207 110 251 l 60 325 q 163 386 113 367 q 268 405 212 405 q 421 367 333 405 l 422 367 q 444 356 429 363 q 586 320 523 320 q 679 340 632 320 q 777 405 726 361 "},"Ã�":{"x_min":25.09375,"x_max":811.09375,"ha":836,"o":"m 417 892 l 273 374 l 562 374 l 417 892 m 335 1012 l 501 1012 l 811 0 l 669 0 l 594 264 l 240 264 l 166 0 l 25 0 l 335 1012 m 455 1288 l 581 1288 l 426 1109 l 322 1109 l 455 1288 "},"g":{"x_min":83,"x_max":706,"ha":836,"o":"m 581 386 q 535 600 581 527 q 402 673 489 673 q 263 600 311 673 q 215 386 215 527 q 263 172 215 246 q 403 99 311 99 q 535 172 489 99 q 581 386 581 246 m 706 49 q 625 -209 706 -121 q 388 -298 544 -298 q 280 -288 336 -298 q 168 -260 224 -278 l 168 -137 q 288 -183 234 -168 q 388 -198 342 -198 q 535 -143 489 -198 q 581 31 581 -88 l 581 36 l 581 121 q 499 26 551 57 q 374 -5 448 -5 q 162 101 241 -5 q 83 386 83 208 q 162 672 83 565 q 374 778 241 778 q 498 749 447 778 q 581 659 549 720 l 581 757 l 706 757 l 706 49 "},"Â²":{"x_min":218,"x_max":605,"ha":836,"o":"m 327 530 l 605 530 l 605 453 l 218 453 l 218 527 l 374 680 q 470 787 443 746 q 498 864 498 829 q 464 931 498 905 q 374 957 430 957 q 303 944 341 957 q 221 908 264 932 l 221 992 q 307 1021 266 1012 q 388 1031 348 1031 q 542 985 484 1031 q 601 868 601 940 q 575 788 601 829 q 470 669 550 748 l 327 530 "},"â€“":{"x_min":0,"x_max":836,"ha":836,"o":"m 0 430 l 836 430 l 836 334 l 0 334 l 0 430 "},"Ã«":{"x_min":83,"x_max":754,"ha":836,"o":"m 754 411 l 754 350 l 213 350 l 213 345 q 277 153 213 221 q 460 85 342 85 q 585 104 520 85 q 725 162 650 123 l 725 38 q 587 -5 653 9 q 459 -20 521 -20 q 182 86 282 -20 q 83 378 83 192 q 180 669 83 560 q 441 777 278 777 q 670 679 586 777 q 754 411 754 581 m 628 447 q 578 614 628 557 q 436 672 529 672 q 287 612 345 672 q 217 447 228 552 l 628 447 m 225 1052 l 363 1052 l 363 915 l 225 915 l 225 1052 m 491 1052 l 628 1052 l 628 915 l 491 915 l 491 1052 "},"Æ’":{"x_min":0,"x_max":814,"ha":836,"o":"m 814 1030 l 814 919 q 761 948 789 938 q 704 958 734 958 q 596 915 635 958 q 544 785 557 873 l 514 575 l 720 575 l 720 478 l 497 478 l 429 47 q 332 -211 400 -133 q 139 -289 265 -289 q 65 -281 100 -289 q 0 -259 31 -274 l 0 -148 q 67 -180 33 -169 q 133 -192 101 -192 q 239 -141 198 -192 q 298 12 280 -90 l 378 478 l 207 478 l 207 575 l 393 575 l 426 798 q 511 986 444 918 q 679 1055 578 1055 q 745 1048 712 1055 q 814 1030 779 1042 "},"ÃŽ":{"x_min":136,"x_max":698,"ha":836,"o":"m 136 1013 l 698 1013 l 698 898 l 486 898 l 486 115 l 698 115 l 698 0 l 136 0 l 136 115 l 348 115 l 348 898 l 136 898 l 136 1013 m 353 1289 l 481 1289 l 624 1109 l 530 1109 l 417 1229 l 305 1109 l 210 1109 l 353 1289 "},"e":{"x_min":83,"x_max":754,"ha":836,"o":"m 754 411 l 754 350 l 213 350 l 213 345 q 277 153 213 221 q 460 85 342 85 q 585 104 520 85 q 725 162 651 123 l 725 38 q 587 -5 653 9 q 459 -20 521 -20 q 182 86 282 -20 q 83 378 83 192 q 180 669 83 560 q 441 777 278 777 q 670 679 586 777 q 754 411 754 581 m 628 447 q 578 614 628 557 q 436 672 529 672 q 287 612 345 672 q 217 447 228 552 l 628 447 "},"Ãƒ":{"x_min":25.453125,"x_max":811.21875,"ha":836,"o":"m 418 892 l 273 374 l 562 374 l 418 892 m 335 1012 l 501 1012 l 811 0 l 669 0 l 594 264 l 240 264 l 167 0 l 25 0 l 335 1012 m 415 1159 l 376 1182 q 349 1195 359 1191 q 330 1199 338 1199 q 293 1182 307 1199 q 280 1135 280 1165 l 280 1130 l 195 1130 q 229 1238 195 1198 q 322 1279 264 1279 q 367 1273 346 1279 q 421 1250 388 1268 l 460 1229 q 486 1217 475 1221 q 508 1213 498 1213 q 543 1230 529 1213 q 557 1274 557 1247 l 557 1279 l 641 1279 q 606 1171 641 1211 q 514 1131 571 1131 q 471 1136 491 1131 q 415 1159 450 1141 "},"J":{"x_min":73.578125,"x_max":648,"ha":836,"o":"m 73 40 l 73 200 q 201 118 135 145 q 337 91 266 91 q 472 141 434 91 q 511 329 511 192 l 511 897 l 252 897 l 252 1012 l 648 1012 l 648 329 q 576 59 648 138 q 337 -20 504 -20 q 207 -5 272 -20 q 73 40 143 9 "},"Â»":{"x_min":131,"x_max":757,"ha":836,"o":"m 439 718 l 757 434 l 757 379 l 439 95 l 439 225 l 643 406 l 439 588 l 439 718 m 131 718 l 449 434 l 449 379 l 131 95 l 131 225 l 335 406 l 131 588 l 131 718 "},"âˆ†":{"x_min":-4.0625,"x_max":841.609375,"ha":836,"o":"m -4 0 l 347 965 l 488 965 l 841 0 l -4 0 m 417 827 l 168 117 l 668 117 l 417 827 "},"Â©":{"x_min":0,"x_max":836,"ha":836,"o":"m 586 726 l 586 653 q 508 681 546 672 q 431 691 471 691 q 306 640 352 691 q 261 502 261 589 q 308 365 261 413 q 444 317 355 317 q 517 325 482 317 q 586 351 552 333 l 586 281 q 511 258 550 265 q 431 251 473 251 q 239 318 309 251 q 169 502 169 386 q 239 688 169 620 q 431 757 310 757 q 511 749 473 757 q 586 726 550 742 m 417 851 q 284 825 345 851 q 172 749 222 800 q 95 636 121 699 q 69 502 69 574 q 95 369 69 432 q 172 257 121 307 q 284 179 223 205 q 417 154 346 154 q 550 179 489 154 q 663 257 612 205 q 740 369 715 308 q 766 502 766 431 q 740 636 766 574 q 663 749 714 699 q 551 825 612 800 q 417 851 490 851 m 417 921 q 577 890 503 921 q 712 798 651 859 q 804 662 773 737 q 836 502 836 588 q 805 344 836 417 q 712 208 774 270 q 577 115 650 146 q 417 85 503 85 q 259 115 332 85 q 123 208 185 146 q 30 344 61 270 q 0 502 0 417 q 31 662 0 588 q 123 798 62 737 q 258 890 184 859 q 417 921 332 921 "},"Ë˜":{"x_min":209,"x_max":627,"ha":836,"o":"m 209 1091 l 286 1091 q 326 1014 293 1039 q 418 989 358 989 q 508 1014 475 989 q 550 1091 540 1039 l 627 1091 q 572 944 627 993 q 417 896 517 896 q 263 944 318 896 q 209 1091 209 993 "},"â‰¥":{"x_min":60,"x_max":777,"ha":836,"o":"m 60 296 l 604 455 l 60 612 l 60 736 l 777 512 l 777 398 l 60 173 l 60 296 m 60 115 l 777 115 l 777 0 l 60 0 l 60 115 "},"Ã²":{"x_min":93,"x_max":743.25,"ha":836,"o":"m 417 672 q 274 598 322 672 q 225 378 225 524 q 274 160 225 234 q 417 85 322 85 q 562 160 513 85 q 611 378 611 234 q 562 598 611 524 q 417 672 513 672 m 417 777 q 659 675 575 777 q 743 378 743 572 q 659 82 743 184 q 417 -20 576 -20 q 176 82 259 -20 q 93 378 93 184 q 176 675 93 572 q 417 777 259 777 m 323 1110 l 514 856 l 409 856 l 189 1110 l 323 1110 "},"^":{"x_min":48.828125,"x_max":787.359375,"ha":836,"o":"m 478 1013 l 787 635 l 666 635 l 417 903 l 169 635 l 48 635 l 358 1013 l 478 1013 "},"Â«":{"x_min":81,"x_max":707,"ha":836,"o":"m 399 718 l 399 588 l 194 406 l 399 225 l 399 95 l 81 379 l 81 434 l 399 718 m 707 718 l 707 588 l 502 406 l 707 225 l 707 95 l 389 379 l 389 434 l 707 718 "},"D":{"x_min":93,"x_max":750,"ha":836,"o":"m 296 113 q 537 198 469 113 q 606 505 606 283 q 537 814 606 729 q 296 900 469 900 l 231 900 l 231 113 l 296 113 m 298 1013 q 640 889 530 1013 q 750 505 750 766 q 640 123 750 246 q 298 0 530 0 l 93 0 l 93 1013 l 298 1013 "},"âˆ™":{"x_min":332,"x_max":503,"ha":836,"o":"m 332 586 l 503 586 l 503 379 l 332 379 l 332 586 "},"Ã¿":{"x_min":70.75,"x_max":782.75,"ha":836,"o":"m 582 243 q 503 34 551 164 q 413 -183 436 -144 q 335 -262 381 -236 q 225 -289 288 -289 l 125 -289 l 125 -185 l 199 -185 q 285 -153 254 -185 q 365 11 316 -121 l 70 759 l 203 759 l 428 165 l 650 760 l 782 760 l 582 243 m 217 1053 l 355 1053 l 355 916 l 217 916 l 217 1053 m 483 1053 l 620 1053 l 620 916 l 483 916 l 483 1053 "},"Ã­":{"x_min":121,"x_max":741,"ha":836,"o":"m 173 760 l 493 760 l 493 97 l 741 97 l 741 0 l 121 0 l 121 97 l 368 97 l 368 663 l 173 663 l 173 760 m 512 1111 l 647 1111 l 426 856 l 321 856 l 512 1111 "},"Ë†":{"x_min":201.421875,"x_max":634.765625,"ha":836,"o":"m 368 1111 l 467 1111 l 634 856 l 540 856 l 417 1022 l 295 856 l 201 856 l 368 1111 "},"w":{"x_min":0,"x_max":836.1875,"ha":836,"o":"m 0 760 l 123 760 l 255 145 l 364 538 l 470 538 l 580 145 l 712 760 l 836 760 l 658 0 l 539 0 l 417 416 l 297 0 l 177 0 l 0 760 "},"$":{"x_min":129,"x_max":756,"ha":836,"o":"m 470 392 l 470 99 q 586 138 544 99 q 628 246 628 178 q 590 344 628 309 q 470 392 552 379 m 402 521 l 402 800 q 291 761 331 800 q 252 659 252 723 q 288 567 252 601 q 402 521 325 533 m 470 -205 l 401 -205 l 401 0 q 263 16 331 0 q 129 61 195 32 l 129 183 q 265 118 196 141 q 402 96 334 96 l 402 406 q 197 489 266 427 q 129 654 129 551 q 200 826 129 762 q 402 890 272 890 l 402 1055 l 470 1055 l 470 893 q 579 882 524 893 q 691 853 634 871 l 691 736 q 578 782 632 765 q 470 799 524 799 l 470 508 q 682 420 609 486 q 756 249 756 354 q 676 73 756 143 q 470 3 597 3 l 470 -205 "},"âˆ«":{"x_min":87,"x_max":745,"ha":836,"o":"m 272 -178 q 347 288 347 -178 q 347 400 347 361 q 413 900 347 749 q 619 1051 479 1051 q 710 1022 675 1051 q 745 949 745 993 q 723 891 745 913 q 664 870 701 870 q 616 883 636 870 q 589 919 597 896 q 582 954 585 930 q 567 979 579 979 q 483 559 483 979 q 483 353 483 428 q 416 -111 483 28 q 213 -252 350 -252 q 122 -223 157 -252 q 87 -151 87 -195 q 110 -92 87 -113 q 177 -70 134 -70 q 217 -80 200 -70 q 245 -109 234 -90 q 255 -149 251 -121 q 272 -178 259 -178 "},"\\":{"x_min":69.171875,"x_max":731.75,"ha":836,"o":"m 198 1013 l 731 -129 l 602 -129 l 69 1013 l 198 1013 "},"ÃŒ":{"x_min":136,"x_max":698,"ha":836,"o":"m 136 1013 l 698 1013 l 698 898 l 486 898 l 486 115 l 698 115 l 698 0 l 136 0 l 136 115 l 348 115 l 348 898 l 136 898 l 136 1013 m 379 1288 l 513 1109 l 409 1109 l 255 1288 l 379 1288 "},"Âµ":{"x_min":132,"x_max":801.09375,"ha":836,"o":"m 132 -290 l 132 760 l 256 760 l 256 287 q 297 140 256 191 q 413 89 337 89 q 543 146 499 89 q 587 317 587 204 l 587 760 l 712 760 l 712 174 q 722 114 712 133 q 756 96 733 96 q 772 99 762 96 q 801 111 782 102 l 801 11 q 752 -11 775 -4 q 706 -19 729 -19 q 638 7 664 -19 q 605 87 613 34 q 528 7 574 33 q 423 -19 483 -19 q 317 6 361 -19 q 245 86 274 32 l 245 -290 l 132 -290 "},"Ã‡":{"x_min":94,"x_max":727,"ha":836,"o":"m 727 35 q 619 -6 674 7 q 503 -20 565 -20 q 201 117 308 -20 q 94 505 94 255 q 202 892 94 753 q 503 1031 310 1031 q 619 1017 565 1031 q 727 975 674 1003 l 727 835 q 619 898 676 876 q 503 920 561 920 q 303 816 369 920 q 237 505 237 713 q 303 194 237 297 q 503 91 369 91 q 620 113 563 91 q 727 176 677 134 l 727 35 m 542 0 q 598 -77 580 -42 q 616 -145 616 -113 q 575 -237 616 -206 q 454 -268 534 -268 q 394 -263 424 -268 q 335 -251 365 -259 l 335 -163 q 383 -179 358 -174 q 441 -185 409 -185 q 501 -168 480 -185 q 522 -121 522 -152 q 507 -71 522 -100 q 462 0 492 -41 l 542 0 "},"â€™":{"x_min":313.546875,"x_max":551,"ha":836,"o":"m 380 1055 l 551 1055 l 551 915 l 417 655 l 313 655 l 380 915 l 380 1055 "},"-":{"x_min":241,"x_max":594,"ha":836,"o":"m 241 436 l 594 436 l 594 325 l 241 325 l 241 436 "},"Q":{"x_min":79,"x_max":756,"ha":836,"o":"m 443 -19 q 430 -19 438 -19 q 415 -19 421 -19 q 162 111 246 -19 q 79 505 79 241 q 162 900 79 770 q 417 1031 246 1031 q 672 900 588 1031 q 756 505 756 770 q 709 184 756 306 q 568 13 663 62 l 704 -115 l 602 -183 l 443 -19 m 613 505 q 567 824 613 728 q 417 920 521 920 q 267 824 313 920 q 222 505 222 728 q 267 187 222 283 q 417 92 313 92 q 567 187 521 92 q 613 505 613 282 "},"M":{"x_min":58,"x_max":776,"ha":836,"o":"m 58 1013 l 240 1013 l 415 497 l 592 1013 l 776 1013 l 776 0 l 649 0 l 649 894 l 468 361 l 364 361 l 184 894 l 184 0 l 58 0 l 58 1013 "},"C":{"x_min":94,"x_max":727,"ha":836,"o":"m 727 35 q 619 -6 674 7 q 503 -20 565 -20 q 201 117 308 -20 q 94 505 94 255 q 202 892 94 753 q 503 1031 310 1031 q 619 1017 565 1031 q 727 975 674 1003 l 727 835 q 619 898 676 876 q 503 920 561 920 q 303 816 369 920 q 237 505 237 713 q 303 194 237 297 q 503 91 369 91 q 620 112 563 91 q 727 175 677 134 l 727 35 "},"!":{"x_min":350,"x_max":488,"ha":836,"o":"m 357 1012 l 480 1012 l 480 567 l 480 326 l 357 326 l 357 567 l 357 1012 m 350 172 l 488 172 l 488 0 l 350 0 l 350 172 "},"Ã§":{"x_min":132,"x_max":719,"ha":836,"o":"m 719 38 q 615 -5 668 9 q 506 -20 562 -20 q 231 85 330 -20 q 132 379 132 191 q 231 672 132 566 q 506 778 330 778 q 613 763 561 778 q 719 719 666 749 l 719 588 q 619 652 669 632 q 507 672 570 672 q 326 596 389 672 q 264 379 264 520 q 327 162 264 238 q 507 86 390 86 q 623 106 572 86 q 719 168 675 126 l 719 38 m 545 0 q 601 -77 583 -42 q 619 -145 619 -113 q 578 -237 619 -206 q 457 -268 537 -268 q 397 -263 427 -268 q 338 -251 368 -259 l 338 -163 q 386 -179 361 -174 q 444 -185 412 -185 q 504 -168 483 -185 q 525 -121 525 -152 q 510 -71 525 -100 q 465 0 495 -41 l 545 0 "},"Ãˆ":{"x_min":134,"x_max":747.75,"ha":836,"o":"m 134 1013 l 734 1013 l 734 898 l 271 898 l 271 597 l 714 597 l 714 482 l 271 482 l 271 115 l 747 115 l 747 0 l 134 0 l 134 1013 m 393 1288 l 526 1109 l 422 1109 l 268 1288 l 393 1288 "},"{":{"x_min":150,"x_max":687,"ha":836,"o":"m 687 -129 l 687 -227 l 643 -227 q 417 -176 474 -227 q 360 23 360 -126 l 360 185 q 323 327 360 288 q 192 367 287 367 l 150 367 l 150 464 l 192 464 q 323 502 287 464 q 360 642 360 541 l 360 805 q 417 1005 360 955 q 643 1055 474 1055 l 687 1055 l 687 958 l 639 958 q 515 928 544 958 q 487 802 487 899 l 487 634 q 456 480 487 528 q 350 415 425 432 q 456 348 425 396 q 487 194 487 300 l 487 26 q 515 -99 487 -70 q 639 -129 544 -129 l 687 -129 "},"X":{"x_min":12.203125,"x_max":823.296875,"ha":836,"o":"m 58 1013 l 205 1013 l 427 631 l 654 1013 l 801 1013 l 498 536 l 823 0 l 676 0 l 427 436 l 160 0 l 12 0 l 351 536 l 58 1013 "},"Ã´":{"x_min":93,"x_max":743.25,"ha":836,"o":"m 417 672 q 274 598 322 672 q 225 378 225 524 q 274 160 225 234 q 417 85 322 85 q 562 160 513 85 q 611 378 611 234 q 562 598 611 524 q 417 672 513 672 m 417 777 q 659 675 575 777 q 743 378 743 572 q 659 82 743 184 q 417 -20 576 -20 q 176 82 259 -20 q 93 378 93 184 q 176 675 93 572 q 417 777 259 777 m 368 1110 l 467 1110 l 634 856 l 540 856 l 417 1022 l 295 856 l 201 856 l 368 1110 "},"Â¼":{"x_min":18.765625,"x_max":756.25,"ha":836,"o":"m 71 634 l 210 634 l 210 1048 l 58 1020 l 58 1099 l 214 1125 l 308 1125 l 308 634 l 446 634 l 446 559 l 71 559 l 71 634 m 35 341 l 18 414 l 737 593 l 756 519 l 35 341 m 552 382 l 663 382 l 663 18 l 742 18 l 742 -57 l 663 -57 l 663 -183 l 569 -183 l 569 -57 l 307 -57 l 307 24 l 552 382 m 569 298 l 383 18 l 569 18 l 569 298 "},"#":{"x_min":1,"x_max":833,"ha":836,"o":"m 463 997 l 392 716 l 559 716 l 630 997 l 738 997 l 667 716 l 833 716 l 833 612 l 642 612 l 585 385 l 755 385 l 755 281 l 559 281 l 488 0 l 380 0 l 451 281 l 284 281 l 213 0 l 105 0 l 175 281 l 1 281 l 1 385 l 202 385 l 259 612 l 79 612 l 79 716 l 284 716 l 354 997 l 463 997 m 533 612 l 367 612 l 310 385 l 477 385 l 533 612 "},"ÃŠ":{"x_min":134,"x_max":747.75,"ha":836,"o":"m 134 1013 l 734 1013 l 734 898 l 271 898 l 271 597 l 714 597 l 714 482 l 271 482 l 271 115 l 747 115 l 747 0 l 134 0 l 134 1013 m 366 1289 l 494 1289 l 637 1109 l 542 1109 l 430 1229 l 318 1109 l 223 1109 l 366 1289 "},")":{"x_min":235.953125,"x_max":547.25,"ha":836,"o":"m 235 1054 l 344 1054 q 497 740 446 893 q 547 436 547 587 q 497 130 547 283 q 344 -183 446 -22 l 235 -183 q 370 128 326 -25 q 415 436 415 282 q 370 744 415 590 q 235 1054 326 898 "},"Ã…":{"x_min":25.15625,"x_max":810.84375,"ha":836,"o":"m 521 1103 q 490 1175 521 1145 q 417 1206 460 1206 q 344 1176 374 1206 q 315 1103 315 1147 q 344 1030 315 1060 q 417 1000 374 1000 q 490 1030 460 1000 q 521 1103 521 1060 m 417 889 l 273 374 l 562 374 l 417 889 m 315 949 q 253 1012 275 971 q 232 1102 232 1053 q 286 1234 232 1180 q 417 1289 340 1289 q 549 1234 494 1289 q 604 1102 604 1180 q 582 1013 604 1053 q 521 949 560 973 l 810 0 l 669 0 l 594 264 l 240 264 l 166 0 l 25 0 l 315 949 "},"Ã¸":{"x_min":31.96875,"x_max":796.140625,"ha":836,"o":"m 594 528 l 281 149 q 339 101 305 117 q 418 85 374 85 q 562 160 513 85 q 611 378 611 234 q 606 451 611 414 q 594 528 602 489 m 554 608 q 496 656 530 640 q 418 672 463 672 q 273 599 323 672 q 223 389 223 526 q 227 317 223 357 q 241 230 232 278 l 554 608 m 147 121 q 106 236 120 169 q 93 378 93 302 q 176 675 93 572 q 417 777 259 777 q 539 759 485 777 q 633 702 592 740 l 733 821 l 796 769 l 684 637 q 728 527 713 592 q 743 378 743 461 q 659 82 743 184 q 418 -20 576 -20 q 295 0 348 -20 q 203 60 241 20 l 94 -65 l 31 -13 l 147 121 "},"Ã¢":{"x_min":90,"x_max":718,"ha":836,"o":"m 475 381 l 434 381 q 270 342 325 381 q 215 228 215 304 q 256 121 215 159 q 370 84 297 84 q 533 155 474 84 q 592 353 592 227 l 592 381 l 475 381 m 718 433 l 718 0 l 592 0 l 592 111 q 491 12 552 44 q 344 -20 431 -20 q 159 45 228 -20 q 90 220 90 110 q 175 413 90 347 q 425 479 260 479 l 592 479 l 592 498 q 546 630 592 589 q 401 672 501 672 q 272 653 337 672 q 146 599 207 635 l 146 724 q 278 764 215 751 q 401 777 341 777 q 562 750 495 777 q 670 666 629 722 q 707 582 696 632 q 718 433 718 532 m 368 1110 l 467 1110 l 634 856 l 540 856 l 417 1022 l 295 856 l 201 856 l 368 1110 "},"}":{"x_min":150,"x_max":686,"ha":836,"o":"m 150 -129 l 196 -129 q 320 -99 291 -129 q 350 26 350 -69 l 350 194 q 380 348 350 300 q 486 415 411 396 q 380 480 411 432 q 350 634 350 528 l 350 802 q 320 928 350 898 q 196 958 291 958 l 150 958 l 150 1055 l 192 1055 q 418 1005 361 1055 q 475 805 475 955 l 475 642 q 511 502 475 541 q 642 464 547 464 l 686 464 l 686 367 l 642 367 q 511 327 547 367 q 475 185 475 288 l 475 23 q 418 -176 475 -126 q 192 -227 361 -227 l 150 -227 l 150 -129 "},"â€°":{"x_min":0,"x_max":836,"ha":836,"o":"m 49 384 l 24 450 l 731 731 l 758 666 l 49 384 m 113 196 q 145 114 113 147 q 224 82 177 82 q 303 115 270 82 q 337 196 337 149 q 303 275 337 241 q 224 309 269 309 q 145 276 177 309 q 113 196 113 243 m 31 196 q 86 334 31 278 q 224 390 142 390 q 361 333 305 390 q 418 196 418 277 q 361 56 418 113 q 224 0 304 0 q 86 56 142 0 q 31 196 31 112 m 82 776 q 114 696 82 729 q 194 664 147 664 q 274 696 241 664 q 307 776 307 729 q 273 855 307 821 q 194 889 239 889 q 114 856 147 889 q 82 776 82 823 m 0 776 q 56 914 0 857 q 194 971 112 971 q 331 914 275 971 q 388 776 388 857 q 331 637 388 694 q 194 581 275 581 q 56 637 112 581 q 0 776 0 694 m 529 196 q 561 114 529 147 q 641 82 594 82 q 721 114 688 82 q 754 196 754 147 q 720 275 754 241 q 641 309 687 309 q 561 276 594 309 q 529 196 529 243 m 447 196 q 503 333 447 277 q 641 390 559 390 q 779 333 722 390 q 836 196 836 277 q 779 56 836 113 q 641 0 722 0 q 503 56 559 0 q 447 196 447 113 "},"Ã„":{"x_min":24.75,"x_max":810.921875,"ha":836,"o":"m 417 892 l 273 374 l 562 374 l 417 892 m 334 1012 l 500 1012 l 810 0 l 669 0 l 594 264 l 239 264 l 166 0 l 24 0 l 334 1012 m 216 1269 l 354 1269 l 354 1131 l 216 1131 l 216 1269 m 482 1269 l 619 1269 l 619 1131 l 482 1131 l 482 1269 "},"Â¸":{"x_min":267.5,"x_max":548,"ha":836,"o":"m 474 0 q 530 -78 512 -42 q 548 -146 548 -113 q 507 -237 548 -206 q 386 -268 466 -268 q 326 -263 356 -268 q 267 -251 297 -259 l 267 -163 q 315 -179 290 -174 q 373 -185 341 -185 q 433 -168 412 -185 q 454 -121 454 -152 q 439 -71 454 -100 q 394 0 424 -41 l 474 0 "},"a":{"x_min":90,"x_max":718,"ha":836,"o":"m 475 381 l 434 381 q 270 342 325 381 q 215 228 215 304 q 256 121 215 159 q 370 84 297 84 q 533 155 474 84 q 592 353 592 227 l 592 381 l 475 381 m 718 433 l 718 0 l 592 0 l 592 111 q 491 12 552 44 q 344 -20 431 -20 q 159 45 228 -20 q 90 220 90 110 q 175 413 90 347 q 425 479 260 479 l 592 479 l 592 498 q 546 630 592 589 q 401 672 501 672 q 272 653 337 672 q 146 599 207 635 l 146 724 q 278 764 215 751 q 401 777 341 777 q 562 750 495 777 q 670 666 629 722 q 707 582 696 632 q 718 433 718 532 "},"â€”":{"x_min":0,"x_max":836,"ha":836,"o":"m 0 430 l 836 430 l 836 334 l 0 334 l 0 430 "},"=":{"x_min":60,"x_max":777,"ha":836,"o":"m 60 356 l 777 356 l 777 239 l 60 239 l 60 356 m 60 631 l 777 631 l 777 516 l 60 516 l 60 631 "},"N":{"x_min":94,"x_max":742,"ha":836,"o":"m 94 1013 l 267 1013 l 609 179 l 609 1013 l 742 1013 l 742 0 l 568 0 l 226 833 l 226 0 l 94 0 l 94 1013 "},"Ëš":{"x_min":232,"x_max":604,"ha":836,"o":"m 604 1033 q 550 901 604 955 q 417 847 496 847 q 285 901 339 847 q 232 1033 232 955 q 285 1165 232 1111 q 417 1219 339 1219 q 550 1165 496 1219 q 604 1033 604 1111 m 521 1033 q 491 1106 521 1076 q 417 1136 461 1136 q 344 1106 374 1136 q 315 1033 315 1076 q 344 959 315 989 q 417 930 374 930 q 491 959 461 930 q 521 1033 521 989 "},"Ãº":{"x_min":132,"x_max":712,"ha":836,"o":"m 132 287 l 132 758 l 257 758 l 257 287 q 293 137 257 185 q 405 89 329 89 q 540 151 493 89 q 587 328 587 213 l 587 758 l 712 758 l 712 0 l 587 0 l 587 114 q 496 14 553 48 q 362 -20 439 -20 q 188 56 245 -20 q 132 287 132 132 m 512 1110 l 646 1110 l 426 856 l 322 856 l 512 1110 "},"2":{"x_min":103,"x_max":718,"ha":836,"o":"m 252 115 l 718 115 l 718 0 l 103 0 l 103 115 q 324 351 229 248 q 455 495 419 453 q 547 629 523 578 q 571 734 571 681 q 521 867 571 819 q 384 916 471 916 q 254 893 322 916 q 111 825 187 871 l 111 964 q 248 1014 181 997 q 381 1031 315 1031 q 620 951 530 1031 q 711 744 711 872 q 680 614 711 679 q 583 470 650 549 q 473 348 545 426 q 252 115 400 270 "},"Ã¼":{"x_min":132,"x_max":712,"ha":836,"o":"m 132 287 l 132 758 l 257 758 l 257 287 q 293 137 257 185 q 405 89 329 89 q 540 151 493 89 q 587 328 587 213 l 587 758 l 712 758 l 712 0 l 587 0 l 587 114 q 496 14 553 48 q 362 -20 439 -20 q 188 56 245 -20 q 132 287 132 132 m 216 1052 l 354 1052 l 354 915 l 216 915 l 216 1052 m 482 1052 l 619 1052 l 619 915 l 482 915 l 482 1052 "},"Â¯":{"x_min":215,"x_max":621,"ha":836,"o":"m 215 1035 l 621 1035 l 621 935 l 215 935 l 215 1035 "},"Z":{"x_min":106,"x_max":793,"ha":836,"o":"m 121 1013 l 778 1013 l 778 908 l 249 115 l 793 115 l 793 0 l 106 0 l 106 104 l 620 898 l 121 898 l 121 1013 "},"u":{"x_min":132,"x_max":712,"ha":836,"o":"m 132 287 l 132 758 l 257 758 l 257 287 q 293 137 257 185 q 405 89 329 89 q 540 151 493 89 q 587 328 587 213 l 587 758 l 712 758 l 712 0 l 587 0 l 587 114 q 496 14 553 48 q 362 -20 439 -20 q 188 56 245 -20 q 132 287 132 132 "},"Ëœ":{"x_min":195,"x_max":641,"ha":836,"o":"m 415 929 l 376 966 q 351 986 362 980 q 330 993 340 993 q 292 967 304 993 q 280 887 280 942 l 195 887 q 229 1028 195 978 q 326 1079 264 1079 q 374 1069 352 1079 q 421 1037 396 1060 l 459 1000 q 485 980 474 986 q 505 974 496 974 q 543 999 531 974 q 556 1079 556 1024 l 641 1079 q 606 938 641 988 q 510 888 571 888 q 462 897 483 888 q 415 929 440 906 "},"Ã“":{"x_min":79,"x_max":756,"ha":836,"o":"m 613 505 q 567 824 613 728 q 417 920 521 920 q 267 824 313 920 q 222 505 222 728 q 267 186 222 282 q 417 91 313 91 q 567 186 521 91 q 613 505 613 281 m 756 505 q 672 110 756 240 q 417 -20 588 -20 q 162 109 245 -20 q 79 505 79 239 q 162 900 79 770 q 417 1031 246 1031 q 672 900 588 1031 q 756 505 756 770 m 455 1288 l 581 1288 l 425 1109 l 321 1109 l 455 1288 "},"k":{"x_min":160,"x_max":815.25,"ha":836,"o":"m 160 1055 l 289 1055 l 289 444 l 616 760 l 768 760 l 469 473 l 815 0 l 662 0 l 381 392 l 289 304 l 289 0 l 160 0 l 160 1055 "},"Ë‡":{"x_min":201.421875,"x_max":634.765625,"ha":836,"o":"m 368 856 l 201 1111 l 295 1111 l 417 944 l 540 1111 l 634 1111 l 467 856 l 368 856 "},"Ã™":{"x_min":100,"x_max":736,"ha":836,"o":"m 100 388 l 100 1012 l 238 1012 l 238 325 q 242 220 238 251 q 256 171 246 188 q 318 111 277 131 q 418 91 359 91 q 517 111 477 91 q 580 171 558 131 q 594 219 590 188 q 599 324 599 251 l 599 388 l 599 1012 l 736 1012 l 736 388 q 716 167 736 232 q 649 59 697 102 q 547 0 605 19 q 418 -20 489 -20 q 289 0 346 -20 q 186 59 231 19 q 119 168 139 101 q 100 388 100 234 m 380 1287 l 514 1109 l 410 1109 l 256 1287 l 380 1287 "},"â‚¬":{"x_min":25.453125,"x_max":720,"ha":836,"o":"m 143 643 q 268 932 176 834 q 513 1031 361 1031 q 619 1017 570 1031 q 720 975 669 1003 l 720 834 q 621 898 675 875 q 514 922 567 922 q 356 851 415 922 q 281 643 297 781 l 607 643 l 574 570 l 274 570 q 273 541 273 556 q 273 494 273 525 q 273 471 273 484 q 273 443 273 458 l 518 443 l 485 368 l 281 368 q 355 159 296 230 q 514 89 414 89 q 621 111 568 89 q 720 176 674 134 l 720 35 q 620 -6 671 7 q 513 -20 570 -20 q 266 77 359 -20 q 143 368 173 175 l 25 368 l 58 443 l 138 443 q 136 464 136 451 q 136 505 136 495 q 136 549 136 517 q 138 570 136 562 l 25 570 l 58 643 l 143 643 "},"Â¢":{"x_min":144,"x_max":719.3125,"ha":836,"o":"m 719 731 l 719 614 q 629 657 673 641 q 543 673 585 673 l 543 85 q 630 101 585 85 q 719 144 674 117 l 719 28 q 625 -5 669 6 q 543 -17 581 -17 l 543 -212 l 473 -212 l 473 -17 q 232 103 320 -2 q 144 379 144 209 q 233 656 144 549 q 473 777 322 764 l 473 972 l 543 972 l 543 776 q 625 764 581 776 q 719 731 669 752 m 473 86 l 473 673 q 329 584 383 664 q 275 379 275 504 q 329 174 275 254 q 473 86 383 95 "},"ÃŸ":{"x_min":127,"x_max":779,"ha":836,"o":"m 127 770 q 198 985 127 915 q 416 1055 269 1055 q 625 980 554 1055 q 697 758 697 905 q 535 706 592 748 q 479 597 479 664 q 497 537 479 563 q 561 483 516 511 l 600 458 q 741 339 703 394 q 779 205 779 283 q 703 40 779 100 q 494 -20 627 -20 q 401 -11 447 -20 q 311 12 355 -3 l 311 124 q 407 93 362 103 q 492 83 452 83 q 609 115 566 83 q 653 203 653 148 q 630 284 653 251 q 526 366 608 316 l 481 392 q 388 475 419 430 q 358 574 358 521 q 412 719 358 661 q 572 801 467 777 q 530 912 572 873 q 413 951 489 951 q 292 906 331 951 q 254 767 254 862 l 254 -1 l 127 -1 l 127 770 "},"Ã©":{"x_min":83,"x_max":754,"ha":836,"o":"m 754 411 l 754 350 l 213 350 l 213 345 q 277 153 213 221 q 460 85 342 85 q 585 104 520 85 q 725 162 651 123 l 725 38 q 587 -5 653 9 q 459 -20 521 -20 q 182 86 282 -20 q 83 378 83 192 q 180 669 83 560 q 441 777 278 777 q 670 679 586 777 q 754 411 754 581 m 628 447 q 578 614 628 557 q 436 672 529 672 q 287 612 345 672 q 217 447 228 552 l 628 447 m 522 1110 l 656 1110 l 435 856 l 331 856 l 522 1110 "},"s":{"x_min":144.078125,"x_max":698,"ha":836,"o":"m 659 732 l 659 610 q 551 657 605 641 q 441 673 497 673 q 314 645 356 673 q 273 561 273 618 q 304 485 273 510 q 459 436 335 460 l 509 427 q 650 356 602 409 q 698 219 698 303 q 618 43 698 106 q 395 -20 538 -20 q 277 -8 339 -20 q 144 27 215 3 l 144 155 q 277 101 214 119 q 398 84 341 84 q 526 117 481 84 q 572 211 572 151 q 405 331 572 298 l 400 333 l 353 342 q 196 413 245 363 q 147 549 147 463 q 220 717 147 658 q 431 777 294 777 q 549 765 492 777 q 659 732 605 754 "},"B":{"x_min":113,"x_max":772,"ha":836,"o":"m 251 484 l 251 113 l 413 113 q 583 154 532 113 q 634 292 634 196 q 580 437 634 391 q 413 484 526 484 l 251 484 m 251 900 l 251 595 l 410 595 q 553 632 509 595 q 598 755 598 670 q 554 866 598 832 q 410 900 510 900 l 251 900 m 113 1013 l 412 1013 q 651 945 567 1013 q 736 755 736 878 q 691 609 736 662 q 558 542 647 555 q 715 457 658 527 q 772 278 772 386 q 681 70 772 140 q 412 0 591 0 l 113 0 l 113 1013 "},"â€¦":{"x_min":54,"x_max":780,"ha":836,"o":"m 54 207 l 225 207 l 225 0 l 54 0 l 54 207 m 609 207 l 780 207 l 780 0 l 609 0 l 609 207 m 331 207 l 502 207 l 502 0 l 331 0 l 331 207 "},"?":{"x_min":165.15625,"x_max":705,"ha":836,"o":"m 464 272 l 335 272 l 335 376 q 355 489 335 443 q 433 591 376 536 l 494 652 q 552 721 536 692 q 568 785 568 751 q 523 882 568 845 q 405 920 479 920 q 291 896 352 920 q 165 827 231 873 l 165 954 q 293 1012 228 993 q 428 1031 358 1031 q 630 965 555 1031 q 705 791 705 900 q 682 695 705 740 q 595 589 659 651 l 536 530 q 476 457 489 485 q 464 387 464 428 l 464 355 l 464 272 m 330 172 l 468 172 l 468 0 l 330 0 l 330 172 "},"H":{"x_min":93,"x_max":744,"ha":836,"o":"m 93 1013 l 231 1013 l 231 597 l 606 597 l 606 1013 l 744 1013 l 744 0 l 606 0 l 606 482 l 231 482 l 231 0 l 93 0 l 93 1013 "},"Ã®":{"x_min":121,"x_max":741,"ha":836,"o":"m 173 760 l 493 760 l 493 97 l 741 97 l 741 0 l 121 0 l 121 97 l 368 97 l 368 663 l 173 663 l 173 760 m 368 1111 l 467 1111 l 635 856 l 540 856 l 417 1022 l 295 856 l 201 856 l 368 1111 "},"c":{"x_min":132,"x_max":719,"ha":836,"o":"m 719 38 q 615 -5 668 9 q 506 -20 562 -20 q 231 85 330 -20 q 132 378 132 191 q 231 671 132 566 q 506 777 330 777 q 613 763 561 777 q 719 719 666 749 l 719 588 q 619 652 669 632 q 507 672 570 672 q 326 596 389 672 q 264 378 264 520 q 327 162 264 238 q 507 85 390 85 q 623 105 572 85 q 719 167 674 125 l 719 38 "},"Â¶":{"x_min":72.15625,"x_max":699,"ha":836,"o":"m 395 1012 l 699 1012 l 699 -133 l 603 -133 l 603 929 l 474 929 l 474 -133 l 378 -133 l 378 445 q 152 521 232 445 q 72 722 72 596 q 160 932 72 853 q 395 1012 249 1012 "},"âˆ’":{"x_min":60,"x_max":777,"ha":836,"o":"m 60 493 l 777 493 l 777 378 l 60 378 l 60 493 "},"â‰ ":{"x_min":60,"x_max":777,"ha":836,"o":"m 60 631 l 498 631 l 665 844 l 750 775 l 639 631 l 777 631 l 777 516 l 550 516 l 425 356 l 777 356 l 777 239 l 338 239 l 169 25 l 85 95 l 196 239 l 60 239 l 60 356 l 283 356 l 408 516 l 60 516 l 60 631 "},"â€¢":{"x_min":216,"x_max":619,"ha":836,"o":"m 216 516 q 274 658 216 600 q 417 717 332 717 q 560 658 501 717 q 619 516 619 600 q 559 373 619 432 q 416 315 500 315 q 274 373 332 315 q 216 516 216 431 "},"Â¥":{"x_min":25.109375,"x_max":810.90625,"ha":836,"o":"m 25 1012 l 170 1012 l 417 565 l 663 1012 l 810 1012 l 587 632 l 758 632 l 758 557 l 544 557 l 486 453 l 486 430 l 758 430 l 758 355 l 486 355 l 486 0 l 348 0 l 348 355 l 78 355 l 78 430 l 348 430 l 348 453 l 287 557 l 78 557 l 78 632 l 242 632 l 25 1012 "},"(":{"x_min":289,"x_max":600.296875,"ha":836,"o":"m 600 1054 q 465 745 510 899 q 421 436 421 592 q 465 126 421 280 q 600 -183 510 -27 l 491 -183 q 339 131 389 -21 q 289 436 289 284 q 339 740 289 587 q 491 1054 389 893 l 600 1054 "},"U":{"x_min":100,"x_max":736,"ha":836,"o":"m 100 388 l 100 1012 l 238 1012 l 238 325 q 242 220 238 251 q 256 171 246 188 q 318 111 277 131 q 418 91 359 91 q 517 111 477 91 q 580 171 558 131 q 594 219 590 188 q 599 324 599 251 l 599 388 l 599 1012 l 736 1012 l 736 388 q 716 167 736 232 q 649 59 697 102 q 547 0 605 19 q 418 -20 489 -20 q 289 0 346 -20 q 186 59 231 19 q 119 168 139 101 q 100 388 100 234 "},"â—Š":{"x_min":79.34375,"x_max":756.84375,"ha":836,"o":"m 417 955 l 156 401 l 417 -158 l 678 401 l 417 955 m 417 1121 l 756 401 l 417 -323 l 79 401 l 417 1121 "},"Ã‘":{"x_min":94,"x_max":742,"ha":836,"o":"m 94 1013 l 267 1013 l 609 179 l 609 1013 l 742 1013 l 742 0 l 567 0 l 226 833 l 226 0 l 94 0 l 94 1013 m 402 1159 l 363 1182 q 336 1195 346 1191 q 317 1199 325 1199 q 280 1182 294 1199 q 267 1135 267 1165 l 267 1130 l 182 1130 q 216 1238 182 1198 q 309 1279 251 1279 q 354 1273 333 1279 q 408 1250 375 1268 l 447 1229 q 473 1217 462 1221 q 495 1213 485 1213 q 530 1230 516 1213 q 544 1274 544 1247 l 544 1279 l 628 1279 q 593 1171 628 1211 q 501 1131 558 1131 q 458 1136 478 1131 q 402 1159 437 1141 "},"F":{"x_min":158,"x_max":754.4375,"ha":836,"o":"m 158 1013 l 754 1013 l 754 898 l 296 898 l 296 599 l 711 599 l 711 484 l 296 484 l 296 0 l 158 0 l 158 1013 "},"Â­":{"x_min":241,"x_max":594,"ha":836,"o":"m 241 436 l 594 436 l 594 325 l 241 325 l 241 436 "},":":{"x_min":332,"x_max":503,"ha":836,"o":"m 332 721 l 503 721 l 503 515 l 332 515 l 332 721 m 332 207 l 503 207 l 503 0 l 332 0 l 332 207 "},"Ã›":{"x_min":100,"x_max":736,"ha":836,"o":"m 100 388 l 100 1012 l 238 1012 l 238 325 q 242 220 238 251 q 256 171 246 188 q 318 111 277 131 q 418 91 359 91 q 517 111 477 91 q 580 171 558 131 q 594 219 590 188 q 599 324 599 251 l 599 388 l 599 1012 l 736 1012 l 736 388 q 716 167 736 232 q 649 59 697 102 q 547 0 605 19 q 418 -20 489 -20 q 289 0 346 -20 q 186 59 231 19 q 119 168 139 101 q 100 388 100 234 m 354 1288 l 482 1288 l 625 1109 l 530 1109 l 418 1229 l 306 1109 l 211 1109 l 354 1288 "},"*":{"x_min":112.484375,"x_max":723.515625,"ha":836,"o":"m 723 845 l 480 714 l 723 581 l 684 515 l 457 652 l 457 397 l 379 397 l 379 652 l 151 515 l 112 581 l 355 714 l 112 845 l 151 912 l 379 775 l 379 1031 l 457 1031 l 457 775 l 684 912 l 723 845 "},"â€ ":{"x_min":110,"x_max":726,"ha":836,"o":"m 358 1012 l 478 1012 l 478 728 l 726 728 l 726 624 l 478 624 l 478 -134 l 358 -134 l 358 624 l 110 624 l 110 728 l 358 728 l 358 1012 "},"âˆ•":{"x_min":69.171875,"x_max":731.75,"ha":836,"o":"m 602 1013 l 731 1013 l 198 -129 l 69 -129 l 602 1013 "},"Â°":{"x_min":203,"x_max":634,"ha":836,"o":"m 418 1031 q 502 1014 462 1031 q 571 966 541 997 q 618 896 602 935 q 634 813 634 858 q 570 662 634 724 q 416 600 507 600 q 264 661 325 600 q 203 813 203 722 q 265 967 203 904 q 418 1031 327 1031 m 418 943 q 326 905 364 943 q 289 813 289 867 q 326 722 289 759 q 416 686 363 686 q 509 723 471 686 q 548 813 548 760 q 509 905 548 867 q 418 943 471 943 "},"V":{"x_min":38.65625,"x_max":797.53125,"ha":836,"o":"m 417 115 l 655 1013 l 797 1013 l 501 0 l 335 0 l 38 1013 l 180 1013 l 417 115 "},"Ã¥":{"x_min":90,"x_max":718,"ha":836,"o":"m 475 381 l 434 381 q 270 342 325 381 q 215 228 215 304 q 256 121 215 159 q 370 84 297 84 q 533 155 474 84 q 592 353 592 227 l 592 381 l 475 381 m 718 433 l 718 0 l 592 0 l 592 111 q 492 12 552 44 q 344 -20 431 -20 q 159 45 228 -20 q 90 220 90 110 q 175 413 90 347 q 425 479 260 479 l 592 479 l 592 498 q 546 630 592 589 q 401 672 501 672 q 272 653 337 672 q 146 599 207 635 l 146 724 q 278 764 215 751 q 401 777 341 777 q 562 750 495 777 q 670 666 629 722 q 707 582 696 632 q 718 433 718 532 m 604 1033 q 550 901 604 955 q 417 847 496 847 q 285 901 339 847 q 232 1033 232 955 q 285 1165 232 1111 q 417 1219 339 1219 q 550 1165 496 1219 q 604 1033 604 1111 m 521 1033 q 491 1106 521 1076 q 417 1136 461 1136 q 344 1106 374 1136 q 315 1033 315 1076 q 344 959 315 989 q 417 930 374 930 q 491 959 461 930 q 521 1033 521 989 "},"Â ":{"x_min":0,"x_max":0,"ha":836},"0":{"x_min":90,"x_max":746,"ha":836,"o":"m 327 508 q 353 572 327 545 q 415 600 379 600 q 480 572 453 600 q 508 508 508 545 q 481 444 508 470 q 415 418 454 418 q 352 443 377 418 q 327 508 327 469 m 417 922 q 275 818 322 922 q 228 505 228 715 q 275 192 228 295 q 417 89 322 89 q 560 192 513 89 q 608 505 608 295 q 560 818 608 715 q 417 922 513 922 m 417 1031 q 662 898 579 1031 q 746 505 746 765 q 662 112 746 245 q 417 -20 579 -20 q 172 112 255 -20 q 90 505 90 245 q 172 898 90 765 q 417 1031 255 1031 "},"â€�":{"x_min":143.546875,"x_max":692,"ha":836,"o":"m 521 1055 l 692 1055 l 692 915 l 558 655 l 454 655 l 521 915 l 521 1055 m 210 1055 l 381 1055 l 381 915 l 248 655 l 143 655 l 210 915 l 210 1055 "},"Â¾":{"x_min":18.703125,"x_max":756.25,"ha":836,"o":"m 342 865 q 439 815 406 851 q 473 724 473 778 q 408 594 473 639 q 224 549 344 549 q 146 556 184 549 q 67 576 107 563 l 67 658 q 153 631 114 640 q 221 623 191 623 q 330 650 290 623 q 370 724 370 677 q 332 800 370 774 q 221 826 295 826 l 177 826 l 177 899 l 227 899 q 323 920 290 899 q 357 982 357 941 q 324 1041 357 1020 q 232 1063 291 1063 q 164 1054 202 1063 q 87 1031 126 1046 l 87 1113 q 173 1130 133 1124 q 246 1137 213 1137 q 402 1097 345 1137 q 459 989 459 1057 q 429 910 459 941 q 342 865 399 878 m 34 341 l 18 414 l 737 593 l 756 519 l 34 341 m 552 382 l 663 382 l 663 18 l 742 18 l 742 -57 l 663 -57 l 663 -183 l 569 -183 l 569 -57 l 307 -57 l 307 24 l 552 382 m 569 298 l 383 18 l 569 18 l 569 298 "},"@":{"x_min":18,"x_max":799,"ha":836,"o":"m 704 370 q 660 510 704 457 q 544 563 617 563 q 427 510 471 563 q 384 370 384 457 q 427 229 384 282 q 544 177 471 177 q 660 229 617 177 q 704 370 704 282 m 799 92 l 701 92 l 701 167 q 631 101 676 124 q 531 79 587 79 q 350 161 422 79 q 279 370 279 243 q 350 579 279 497 q 531 662 422 662 q 631 638 585 662 q 701 573 676 614 l 701 615 q 641 785 701 721 q 483 850 581 850 q 217 720 316 850 q 119 368 119 590 q 230 13 119 145 q 528 -119 342 -119 q 602 -112 565 -119 q 677 -91 638 -105 l 710 -182 q 625 -207 667 -199 q 544 -216 583 -216 q 160 -58 302 -216 q 18 368 18 99 q 145 789 18 632 q 487 946 273 946 q 714 855 629 946 q 799 613 799 765 l 799 92 "},"Ã¶":{"x_min":93,"x_max":743.25,"ha":836,"o":"m 417 672 q 274 598 322 672 q 225 378 225 524 q 274 160 225 234 q 417 85 322 85 q 562 160 513 85 q 611 378 611 234 q 562 598 611 524 q 417 672 513 672 m 417 777 q 659 675 575 777 q 743 378 743 572 q 659 82 743 184 q 417 -20 576 -20 q 176 82 259 -20 q 93 378 93 184 q 176 675 93 572 q 417 777 259 777 m 216 1052 l 354 1052 l 354 915 l 216 915 l 216 1052 m 482 1052 l 619 1052 l 619 915 l 482 915 l 482 1052 "},"i":{"x_min":121,"x_max":741,"ha":836,"o":"m 173 759 l 493 759 l 493 97 l 741 97 l 741 0 l 121 0 l 121 97 l 368 97 l 368 662 l 173 662 l 173 759 m 368 1055 l 493 1055 l 493 897 l 368 897 l 368 1055 "},"â‰¤":{"x_min":58,"x_max":775,"ha":836,"o":"m 775 296 l 775 173 l 58 398 l 58 512 l 775 736 l 775 612 l 231 455 l 775 296 m 775 115 l 775 0 l 58 0 l 58 115 l 775 115 "},"Ã•":{"x_min":79,"x_max":756,"ha":836,"o":"m 613 505 q 567 824 613 728 q 417 920 521 920 q 267 824 313 920 q 222 505 222 728 q 267 186 222 282 q 417 91 313 91 q 567 186 521 91 q 613 505 613 281 m 756 505 q 672 110 756 240 q 417 -20 588 -20 q 162 109 245 -20 q 79 505 79 239 q 162 900 79 770 q 417 1031 246 1031 q 672 900 588 1031 q 756 505 756 770 m 414 1159 l 375 1182 q 348 1195 358 1191 q 329 1199 337 1199 q 292 1182 306 1199 q 279 1134 279 1165 l 279 1130 l 194 1130 q 228 1238 194 1198 q 321 1279 263 1279 q 366 1273 345 1279 q 420 1249 387 1268 l 459 1229 q 485 1216 474 1220 q 507 1212 497 1212 q 542 1229 528 1212 q 556 1274 556 1246 l 556 1279 l 640 1279 q 605 1171 640 1211 q 513 1130 570 1130 q 470 1136 490 1130 q 414 1159 449 1141 "},"Ã¾":{"x_min":129,"x_max":752,"ha":836,"o":"m 254 95 l 254 -289 l 129 -289 l 129 1063 l 254 1063 l 254 662 q 337 748 285 718 q 457 778 389 778 q 673 671 595 778 q 752 376 752 564 q 673 85 752 191 q 457 -19 594 -19 q 335 9 387 -19 q 254 95 283 39 m 621 379 q 575 598 621 524 q 438 672 529 672 q 300 597 347 672 q 254 379 254 523 q 300 160 254 235 q 438 86 347 86 q 575 159 529 86 q 621 379 621 233 "},"]":{"x_min":234.234375,"x_max":522,"ha":836,"o":"m 522 1055 l 522 -184 l 234 -184 l 234 -87 l 397 -87 l 397 958 l 234 958 l 234 1055 l 522 1055 "},"m":{"x_min":74,"x_max":770,"ha":836,"o":"m 458 682 q 517 754 481 731 q 602 778 552 778 q 732 707 694 778 q 770 440 770 636 l 770 0 l 656 0 l 656 435 q 637 634 656 595 q 572 674 619 674 q 498 632 518 674 q 478 435 478 590 l 478 0 l 364 0 l 364 435 q 344 635 364 597 q 275 674 325 674 q 206 632 225 674 q 187 435 187 590 l 187 0 l 74 0 l 74 760 l 187 760 l 187 694 q 242 756 209 735 q 319 778 276 778 q 405 754 370 778 q 458 682 439 730 "},"8":{"x_min":89,"x_max":748,"ha":836,"o":"m 418 480 q 276 428 326 480 q 227 284 227 377 q 277 138 227 190 q 418 87 328 87 q 560 138 510 87 q 610 284 610 189 q 559 428 610 377 q 418 480 509 480 m 298 537 q 162 620 211 559 q 113 767 113 681 q 195 959 113 888 q 418 1030 277 1030 q 641 959 559 1030 q 724 767 724 888 q 674 620 724 681 q 538 537 625 559 q 693 446 639 514 q 748 271 748 379 q 660 57 748 134 q 418 -20 572 -20 q 176 56 263 -20 q 89 270 89 133 q 142 446 89 378 q 298 537 196 514 m 249 755 q 292 630 249 673 q 418 588 335 588 q 544 630 501 588 q 588 755 588 673 q 544 881 588 838 q 418 925 501 925 q 292 881 335 925 q 249 755 249 837 "},"R":{"x_min":97,"x_max":835.578125,"ha":836,"o":"m 515 478 q 605 427 568 464 q 698 276 642 389 l 835 0 l 688 0 l 568 255 q 474 396 516 364 q 365 428 432 428 l 235 428 l 235 0 l 97 0 l 97 1013 l 378 1013 q 634 937 545 1013 q 723 719 723 862 q 668 556 723 619 q 515 478 614 492 m 235 900 l 235 541 l 384 541 q 530 585 482 541 q 579 719 579 629 q 527 853 579 807 q 379 900 476 900 l 235 900 "},"Ã¡":{"x_min":90,"x_max":718,"ha":836,"o":"m 475 381 l 434 381 q 270 342 325 381 q 215 228 215 304 q 256 121 215 159 q 370 84 297 84 q 533 155 474 84 q 592 353 592 227 l 592 381 l 475 381 m 718 432 l 718 0 l 592 0 l 592 111 q 491 11 552 43 q 344 -20 431 -20 q 159 45 228 -20 q 90 220 90 110 q 175 413 90 347 q 425 479 260 479 l 592 479 l 592 498 q 546 630 592 589 q 401 672 501 672 q 272 653 337 672 q 146 599 207 635 l 146 724 q 278 764 215 751 q 401 777 341 777 q 562 750 495 777 q 670 666 629 722 q 707 582 696 632 q 718 432 718 532 m 512 1110 l 646 1110 l 426 856 l 322 856 l 512 1110 "},"Ã—":{"x_min":101.71875,"x_max":734.453125,"ha":836,"o":"m 101 198 l 339 434 l 101 672 l 180 751 l 417 514 l 655 751 l 734 672 l 497 434 l 733 198 l 654 118 l 417 355 l 181 118 l 101 198 "},"o":{"x_min":93,"x_max":743.25,"ha":836,"o":"m 417 672 q 274 598 322 672 q 225 378 225 524 q 274 160 225 234 q 417 85 322 85 q 562 160 513 85 q 611 378 611 234 q 562 598 611 524 q 417 672 513 672 m 417 777 q 659 675 575 777 q 743 378 743 572 q 659 82 743 184 q 417 -20 576 -20 q 176 82 259 -20 q 93 378 93 184 q 176 675 93 572 q 417 777 259 777 "},"5":{"x_min":97,"x_max":725,"ha":836,"o":"m 140 1012 l 652 1012 l 652 897 l 265 897 l 265 648 q 323 663 294 658 q 383 669 353 669 q 632 576 540 669 q 725 324 725 483 q 628 72 725 164 q 364 -20 531 -20 q 216 -9 283 -20 q 97 23 149 1 l 97 162 q 222 111 159 128 q 350 95 285 95 q 525 154 464 95 q 587 324 587 214 q 523 493 587 433 q 346 554 460 554 q 239 541 291 554 q 140 503 187 528 l 140 1012 "},"Ãµ":{"x_min":93,"x_max":743.25,"ha":836,"o":"m 417 672 q 274 598 322 672 q 225 378 225 524 q 274 160 225 234 q 417 85 322 85 q 562 160 513 85 q 611 378 611 234 q 562 598 611 524 q 417 672 513 672 m 417 777 q 659 675 575 777 q 743 378 743 572 q 659 82 743 184 q 417 -20 576 -20 q 176 82 259 -20 q 93 378 93 184 q 176 675 93 572 q 417 777 259 777 m 415 929 l 376 966 q 351 986 362 980 q 330 993 340 993 q 292 967 304 993 q 280 887 280 942 l 195 887 q 229 1028 195 978 q 326 1079 264 1079 q 374 1069 352 1079 q 421 1037 396 1060 l 459 1000 q 485 980 474 986 q 505 974 496 974 q 543 999 531 974 q 556 1079 556 1024 l 641 1079 q 606 938 641 988 q 510 888 571 888 q 462 897 483 888 q 415 929 440 906 "},"7":{"x_min":94,"x_max":731,"ha":836,"o":"m 94 1012 l 731 1012 l 731 953 l 369 0 l 226 0 l 578 897 l 94 897 l 94 1012 "},"K":{"x_min":93,"x_max":831.171875,"ha":836,"o":"m 93 1013 l 231 1013 l 231 562 l 658 1013 l 819 1013 l 425 599 l 831 0 l 665 0 l 335 507 l 231 396 l 231 0 l 93 0 l 93 1013 "},",":{"x_min":272.859375,"x_max":511,"ha":836,"o":"m 340 205 l 511 205 l 511 64 l 377 -195 l 272 -195 l 340 64 l 340 205 "},"d":{"x_min":83,"x_max":706,"ha":836,"o":"m 581 662 l 581 1055 l 706 1055 l 706 0 l 581 0 l 581 95 q 498 9 549 39 q 378 -19 446 -19 q 161 87 240 -19 q 83 381 83 193 q 162 672 83 567 q 378 778 241 778 q 499 748 446 778 q 581 662 551 718 m 215 379 q 261 159 215 233 q 396 86 307 86 q 533 160 486 86 q 581 379 581 235 q 533 597 581 523 q 396 672 486 672 q 261 598 307 672 q 215 379 215 524 "},"Â¨":{"x_min":216,"x_max":619,"ha":836,"o":"m 216 1053 l 354 1053 l 354 916 l 216 916 l 216 1053 m 482 1053 l 619 1053 l 619 916 l 482 916 l 482 1053 "},"Ã”":{"x_min":79,"x_max":756,"ha":836,"o":"m 613 505 q 567 824 613 728 q 417 920 521 920 q 267 824 313 920 q 222 505 222 728 q 267 186 222 282 q 417 91 313 91 q 567 186 521 91 q 613 505 613 281 m 756 505 q 672 110 756 240 q 417 -20 588 -20 q 162 109 245 -20 q 79 505 79 239 q 162 900 79 770 q 417 1031 246 1031 q 672 900 588 1031 q 756 505 756 770 m 353 1289 l 481 1289 l 624 1109 l 529 1109 l 417 1229 l 305 1109 l 210 1109 l 353 1289 "},"E":{"x_min":134,"x_max":747.75,"ha":836,"o":"m 134 1013 l 734 1013 l 734 898 l 271 898 l 271 597 l 714 597 l 714 482 l 271 482 l 271 115 l 747 115 l 747 0 l 134 0 l 134 1013 "},"Y":{"x_min":25.515625,"x_max":811.84375,"ha":836,"o":"m 25 1013 l 171 1013 l 418 565 l 664 1013 l 811 1013 l 487 454 l 487 0 l 349 0 l 349 454 l 25 1013 "},"\"":{"x_min":229,"x_max":607,"ha":836,"o":"m 607 1012 l 607 636 l 489 636 l 489 1012 l 607 1012 m 347 1012 l 347 636 l 229 636 l 229 1012 l 347 1012 "},"â€¹":{"x_min":235,"x_max":553,"ha":836,"o":"m 553 718 l 553 588 l 348 406 l 553 225 l 553 95 l 235 379 l 235 434 l 553 718 "},"Ë™":{"x_min":349,"x_max":488,"ha":836,"o":"m 349 1052 l 488 1052 l 488 914 l 349 914 l 349 1052 "},"Ãª":{"x_min":83,"x_max":754,"ha":836,"o":"m 754 411 l 754 350 l 213 350 l 213 345 q 277 153 213 221 q 460 85 342 85 q 585 104 520 85 q 725 162 651 123 l 725 38 q 587 -5 653 9 q 459 -20 521 -20 q 182 86 282 -20 q 83 378 83 192 q 180 669 83 560 q 441 777 278 777 q 670 679 586 777 q 754 411 754 581 m 628 447 q 578 614 628 557 q 436 672 529 672 q 287 612 345 672 q 217 447 228 552 l 628 447 m 377 1110 l 477 1110 l 644 856 l 549 856 l 426 1022 l 304 856 l 210 856 l 377 1110 "},"Ã�":{"x_min":136,"x_max":698,"ha":836,"o":"m 136 1013 l 698 1013 l 698 898 l 486 898 l 486 115 l 698 115 l 698 0 l 136 0 l 136 115 l 348 115 l 348 898 l 136 898 l 136 1013 m 216 1269 l 354 1269 l 354 1131 l 216 1131 l 216 1269 m 482 1269 l 619 1269 l 619 1131 l 482 1131 l 482 1269 "},"â€ž":{"x_min":143.546875,"x_max":692,"ha":836,"o":"m 521 205 l 692 205 l 692 64 l 558 -195 l 454 -195 l 521 64 l 521 205 m 210 205 l 381 205 l 381 64 l 248 -195 l 143 -195 l 210 64 l 210 205 "},"Ã‚":{"x_min":25.09375,"x_max":811.09375,"ha":836,"o":"m 417 892 l 273 374 l 562 374 l 417 892 m 335 1012 l 501 1012 l 811 0 l 669 0 l 594 264 l 240 264 l 166 0 l 25 0 l 335 1012 m 354 1289 l 482 1289 l 625 1109 l 530 1109 l 417 1229 l 305 1109 l 210 1109 l 354 1289 "},"Ã�":{"x_min":136,"x_max":698,"ha":836,"o":"m 136 1013 l 698 1013 l 698 898 l 486 898 l 486 115 l 698 115 l 698 0 l 136 0 l 136 115 l 348 115 l 348 898 l 136 898 l 136 1013 m 455 1288 l 581 1288 l 426 1109 l 321 1109 l 455 1288 "},"Â´":{"x_min":322.125,"x_max":646.96875,"ha":836,"o":"m 512 1111 l 646 1111 l 426 856 l 322 856 l 512 1111 "},"Ã¬":{"x_min":121,"x_max":741,"ha":836,"o":"m 173 760 l 493 760 l 493 97 l 741 97 l 741 0 l 121 0 l 121 97 l 368 97 l 368 663 l 173 663 l 173 760 m 323 1111 l 514 856 l 409 856 l 188 1111 l 323 1111 "},"Â±":{"x_min":60,"x_max":777,"ha":836,"o":"m 60 115 l 777 115 l 777 0 l 60 0 l 60 115 m 475 794 l 475 571 l 777 571 l 777 456 l 475 456 l 475 230 l 361 230 l 361 456 l 60 456 l 60 571 l 361 571 l 361 794 l 475 794 "},"Ãš":{"x_min":100,"x_max":736,"ha":836,"o":"m 100 388 l 100 1012 l 238 1012 l 238 325 q 242 220 238 251 q 256 171 246 188 q 318 111 277 131 q 418 91 359 91 q 517 111 477 91 q 580 171 558 131 q 594 219 590 188 q 599 324 599 251 l 599 388 l 599 1012 l 736 1012 l 736 388 q 716 167 736 232 q 649 59 697 102 q 547 0 605 19 q 418 -20 489 -20 q 289 0 346 -20 q 186 59 231 19 q 119 168 139 101 q 100 388 100 234 m 456 1287 l 582 1287 l 426 1109 l 322 1109 l 456 1287 "},"|":{"x_min":359,"x_max":476,"ha":836,"o":"m 476 1061 l 476 -328 l 359 -328 l 359 1061 l 476 1061 "},"Â§":{"x_min":135,"x_max":703,"ha":836,"o":"m 634 991 l 634 880 q 530 919 578 906 q 442 933 481 933 q 340 905 376 933 q 304 830 304 878 q 443 691 304 769 q 470 676 460 681 q 658 543 614 595 q 703 422 703 491 q 671 314 703 361 q 578 230 640 266 q 638 158 619 195 q 658 78 658 121 q 588 -75 658 -18 q 402 -132 519 -132 q 300 -122 353 -132 q 189 -92 248 -112 l 189 18 q 298 -20 248 -7 q 387 -34 348 -34 q 494 -5 456 -34 q 533 74 533 22 q 382 226 533 143 l 366 236 q 178 369 222 317 q 135 490 135 421 q 166 600 135 552 q 260 682 198 649 q 199 750 219 712 q 179 834 179 788 q 246 977 179 923 q 427 1031 314 1031 q 528 1021 476 1031 q 634 991 580 1011 m 328 634 q 266 573 286 604 q 246 511 246 543 q 293 414 246 460 q 508 278 341 368 q 571 339 550 308 q 592 401 592 369 q 543 499 592 453 q 328 634 494 545 "},"Ã�":{"x_min":25.515625,"x_max":811.84375,"ha":836,"o":"m 25 1013 l 171 1013 l 418 565 l 664 1013 l 811 1013 l 487 454 l 487 0 l 349 0 l 349 454 l 25 1013 m 456 1288 l 582 1288 l 427 1109 l 322 1109 l 456 1288 "},"b":{"x_min":131,"x_max":754,"ha":836,"o":"m 622 379 q 575 598 622 524 q 440 672 529 672 q 302 597 349 672 q 256 379 256 523 q 302 160 256 235 q 440 86 349 86 q 575 159 529 86 q 622 379 622 233 m 256 662 q 338 748 285 718 q 459 778 390 778 q 675 672 596 778 q 754 381 754 567 q 675 87 754 193 q 458 -19 596 -19 q 338 9 390 -19 q 256 95 287 39 l 256 0 l 131 0 l 131 1055 l 256 1055 l 256 662 "},"q":{"x_min":93,"x_max":715,"ha":836,"o":"m 225 376 q 271 156 225 230 q 406 83 316 83 q 543 157 497 83 q 590 376 590 231 q 543 594 590 520 q 406 669 497 669 q 271 595 316 669 q 225 376 225 521 m 590 93 q 507 7 559 37 q 387 -22 455 -22 q 171 82 250 -22 q 93 373 93 188 q 171 668 93 561 q 387 775 250 775 q 506 745 455 775 q 590 659 558 716 l 590 757 l 715 757 l 715 -292 l 590 -292 l 590 93 "},"Ã–":{"x_min":79,"x_max":756,"ha":836,"o":"m 613 505 q 567 824 613 728 q 417 920 521 920 q 267 824 313 920 q 222 505 222 728 q 267 186 222 282 q 417 91 313 91 q 567 186 521 91 q 613 505 613 281 m 756 505 q 672 110 756 240 q 417 -20 588 -20 q 162 109 245 -20 q 79 505 79 239 q 162 900 79 770 q 417 1031 246 1031 q 672 900 588 1031 q 756 505 756 770 m 216 1268 l 354 1268 l 354 1130 l 216 1130 l 216 1268 m 482 1268 l 619 1268 l 619 1130 l 482 1130 l 482 1268 "},"z":{"x_min":138,"x_max":706,"ha":836,"o":"m 154 761 l 705 761 l 705 646 l 269 102 l 706 102 l 706 0 l 138 0 l 138 115 l 573 661 l 154 661 l 154 761 "},"â„¢":{"x_min":0,"x_max":763,"ha":836,"o":"m 297 1013 l 297 949 l 187 949 l 187 620 l 110 620 l 110 949 l 0 949 l 0 1013 l 297 1013 m 469 1013 l 562 839 l 646 1013 l 763 1013 l 763 621 l 686 621 l 686 947 l 580 744 l 543 744 l 431 947 l 431 621 l 354 621 l 354 1013 l 469 1013 "},"Ã£":{"x_min":90,"x_max":718,"ha":836,"o":"m 475 381 l 434 381 q 270 342 325 381 q 215 228 215 304 q 256 121 215 159 q 370 84 297 84 q 533 155 474 84 q 592 353 592 227 l 592 381 l 475 381 m 718 433 l 718 0 l 592 0 l 592 111 q 491 12 552 44 q 344 -20 431 -20 q 159 45 228 -20 q 90 220 90 110 q 175 413 90 347 q 424 479 260 479 l 592 479 l 592 498 q 546 630 592 589 q 401 672 501 672 q 272 653 337 672 q 146 599 207 635 l 146 724 q 278 764 215 751 q 401 777 341 777 q 562 750 495 777 q 670 666 629 722 q 707 582 696 632 q 718 433 718 532 m 414 929 l 376 966 q 350 986 361 980 q 329 993 339 993 q 291 967 303 993 q 279 887 279 942 l 194 887 q 228 1028 194 978 q 325 1079 263 1079 q 373 1069 352 1079 q 420 1037 395 1060 l 459 1000 q 485 980 473 986 q 505 974 496 974 q 543 999 531 974 q 556 1079 556 1024 l 641 1079 q 606 938 641 988 q 509 888 571 888 q 461 897 483 888 q 414 929 439 906 "},"Ã¦":{"x_min":28,"x_max":814,"ha":836,"o":"m 368 299 l 368 348 l 334 348 q 179 317 220 348 q 139 210 139 286 q 169 116 139 149 q 255 84 199 84 q 342 129 317 84 q 368 299 368 174 m 703 445 l 703 480 q 676 627 703 582 q 591 673 650 673 q 506 626 532 673 q 481 474 481 580 l 481 445 l 703 445 m 814 348 l 480 348 q 480 325 480 337 q 480 291 480 314 q 514 132 480 181 q 624 84 548 84 q 721 101 677 84 q 798 153 765 118 l 798 36 q 716 -5 761 9 q 623 -20 671 -20 q 498 7 549 -20 q 426 88 448 35 q 354 7 399 34 q 244 -20 309 -20 q 83 38 138 -20 q 28 207 28 96 q 95 384 28 323 q 292 445 163 445 l 372 445 l 372 504 q 338 629 372 586 q 241 673 304 673 q 158 658 203 673 q 72 617 113 643 l 72 731 q 168 765 124 754 q 254 777 213 777 q 357 755 315 777 q 424 691 399 734 q 492 754 447 732 q 597 777 537 777 q 764 696 715 777 q 814 409 814 616 l 814 348 "},"Â®":{"x_min":0,"x_max":836,"ha":836,"o":"m 407 746 q 555 712 506 746 q 604 611 604 679 q 574 531 604 562 q 490 490 544 499 q 522 464 503 486 q 568 401 542 441 l 645 276 l 548 276 l 476 393 q 422 461 442 447 q 371 476 401 476 l 334 476 l 334 276 l 246 276 l 246 746 l 407 746 m 403 689 l 334 689 l 334 532 l 403 532 q 488 550 463 532 q 514 611 514 568 q 488 671 514 653 q 403 689 463 689 m 417 921 q 577 890 503 921 q 712 798 651 859 q 804 662 773 737 q 836 502 836 588 q 805 344 836 417 q 712 208 774 270 q 577 115 650 146 q 417 85 503 85 q 259 115 332 85 q 123 208 185 146 q 30 344 61 270 q 0 502 0 417 q 31 662 0 588 q 123 798 62 737 q 258 890 184 859 q 417 921 332 921 m 417 851 q 284 825 345 851 q 172 749 222 800 q 95 636 121 699 q 69 502 69 574 q 95 369 69 432 q 172 257 121 307 q 284 179 223 205 q 417 154 346 154 q 550 179 489 154 q 663 257 612 205 q 740 369 715 308 q 766 502 766 431 q 740 636 766 574 q 663 749 714 699 q 551 825 612 800 q 417 851 490 851 "},"Ã‰":{"x_min":134,"x_max":747.75,"ha":836,"o":"m 134 1013 l 734 1013 l 734 898 l 271 898 l 271 597 l 714 597 l 714 482 l 271 482 l 271 115 l 747 115 l 747 0 l 134 0 l 134 1013 m 468 1288 l 594 1288 l 439 1109 l 334 1109 l 468 1288 "},"~":{"x_min":60,"x_max":777,"ha":836,"o":"m 777 530 l 777 411 q 677 352 726 371 q 575 334 629 334 q 437 368 514 334 q 415 378 422 375 q 328 408 363 400 q 258 417 293 417 q 157 396 205 417 q 60 334 109 376 l 60 452 q 162 511 112 493 q 268 530 211 530 q 338 522 304 530 q 422 493 372 514 q 444 483 430 490 q 586 446 523 446 q 680 466 633 446 q 777 530 726 487 "},"Â³":{"x_min":221.53125,"x_max":627,"ha":836,"o":"m 495 759 q 593 709 559 745 q 627 618 627 672 q 562 488 627 533 q 378 443 498 443 q 300 450 338 443 q 221 470 261 457 l 221 552 q 306 525 267 534 q 375 517 344 517 q 483 544 443 517 q 524 618 524 571 q 486 694 524 668 q 374 720 448 720 l 330 720 l 330 793 l 380 793 q 476 814 443 793 q 510 876 510 835 q 477 935 510 914 q 385 957 444 957 q 317 948 355 957 q 240 925 279 940 l 240 1007 q 326 1024 286 1018 q 399 1031 366 1031 q 555 991 498 1031 q 612 883 612 951 q 582 804 612 835 q 495 759 552 772 "},"Â¡":{"x_min":350,"x_max":488,"ha":836,"o":"m 350 841 l 350 1013 l 488 1013 l 488 841 l 350 841 m 357 0 l 357 444 l 357 686 l 480 686 l 480 444 l 480 0 l 357 0 "},"[":{"x_min":314,"x_max":601.75,"ha":836,"o":"m 314 1055 l 601 1055 l 601 958 l 439 958 l 439 -87 l 601 -87 l 601 -184 l 314 -184 l 314 1055 "},"L":{"x_min":146,"x_max":772.96875,"ha":836,"o":"m 146 1012 l 284 1012 l 284 115 l 772 115 l 772 0 l 146 0 l 146 1012 "}," ":{"x_min":0,"x_max":0,"ha":836},"âˆ‘":{"x_min":97,"x_max":736,"ha":836,"o":"m 225 -203 l 736 -203 l 736 -296 l 97 -296 l 97 -233 l 469 389 l 97 964 l 97 1029 l 722 1029 l 722 934 l 225 934 l 578 389 l 225 -203 "},"%":{"x_min":22,"x_max":813,"ha":836,"o":"m 472 216 q 507 127 472 163 q 595 92 542 92 q 683 128 647 92 q 720 216 720 164 q 683 305 720 268 q 595 342 647 342 q 507 306 542 342 q 472 216 472 270 m 380 216 q 442 371 380 308 q 595 434 504 434 q 677 417 638 434 q 747 370 716 401 q 796 298 779 338 q 813 216 813 259 q 749 63 813 126 q 595 0 686 0 q 441 62 503 0 q 380 216 380 124 m 81 315 l 58 380 l 764 664 l 791 599 l 81 315 m 114 754 q 149 665 114 701 q 238 630 185 630 q 327 666 290 630 q 364 754 364 702 q 327 842 364 806 q 238 879 290 879 q 150 843 186 879 q 114 754 114 807 m 22 754 q 84 908 22 845 q 238 971 146 971 q 321 954 282 971 q 392 907 361 938 q 439 837 422 877 q 456 754 456 798 q 392 600 456 663 q 238 538 329 538 q 84 600 146 538 q 22 754 22 662 "},"P":{"x_min":134,"x_max":774,"ha":836,"o":"m 271 900 l 271 520 l 429 520 q 577 570 524 520 q 631 710 631 620 q 578 850 631 800 q 429 900 525 900 l 271 900 m 134 1013 l 429 1013 q 686 935 599 1013 q 774 710 774 858 q 686 483 774 560 q 429 407 599 407 l 271 407 l 271 0 l 134 0 l 134 1013 "},"âˆ�":{"x_min":103,"x_max":733,"ha":836,"o":"m 103 -295 l 103 1030 l 733 1030 l 733 -295 l 628 -295 l 628 940 l 208 940 l 208 -295 l 103 -295 "},"Ã€":{"x_min":25.09375,"x_max":811.09375,"ha":836,"o":"m 417 892 l 273 374 l 562 374 l 417 892 m 335 1012 l 501 1012 l 811 0 l 669 0 l 594 264 l 240 264 l 166 0 l 25 0 l 335 1012 m 380 1288 l 514 1109 l 409 1109 l 255 1288 l 380 1288 "},"_":{"x_min":0,"x_max":694,"ha":836,"o":"m 694 -274 l 694 -328 l 0 -328 l 0 -274 l 694 -274 "},"Ã±":{"x_min":132,"x_max":712,"ha":836,"o":"m 712 470 l 712 0 l 587 0 l 587 470 q 551 620 587 572 q 438 669 515 669 q 304 606 351 669 q 257 429 257 544 l 257 0 l 132 0 l 132 760 l 257 760 l 257 645 q 346 744 289 710 q 481 778 403 778 q 654 701 597 778 q 712 470 712 625 m 414 929 l 376 966 q 350 986 361 980 q 329 993 339 993 q 291 967 303 993 q 279 887 279 942 l 194 887 q 228 1028 194 978 q 325 1079 263 1079 q 373 1069 352 1079 q 420 1037 395 1060 l 459 1000 q 485 980 473 986 q 505 974 496 974 q 543 999 531 974 q 556 1079 556 1024 l 641 1079 q 606 938 641 988 q 509 888 571 888 q 461 897 483 888 q 414 929 439 906 "},"+":{"x_min":60,"x_max":777,"ha":836,"o":"m 475 795 l 475 493 l 777 493 l 777 378 l 475 378 l 475 77 l 361 77 l 361 378 l 60 378 l 60 493 l 361 493 l 361 795 l 475 795 "},"â€š":{"x_min":272.859375,"x_max":511,"ha":836,"o":"m 340 205 l 511 205 l 511 64 l 377 -195 l 272 -195 l 340 64 l 340 205 "},"Â½":{"x_min":18.765625,"x_max":755.5625,"ha":836,"o":"m 71 634 l 210 634 l 210 1048 l 58 1020 l 58 1099 l 214 1125 l 308 1125 l 308 634 l 446 634 l 446 559 l 71 559 l 71 634 m 35 342 l 18 415 l 737 593 l 755 519 l 35 342 m 464 -106 l 742 -106 l 742 -183 l 355 -183 l 355 -108 l 511 44 q 607 151 580 110 q 635 228 635 193 q 601 295 635 269 q 511 321 567 321 q 440 308 478 321 q 358 272 401 296 l 358 356 q 444 385 403 376 q 525 395 485 395 q 679 349 621 395 q 738 232 738 304 q 712 152 738 193 q 607 33 687 112 l 464 -106 "},"Ã†":{"x_min":0,"x_max":800.09375,"ha":836,"o":"m 787 1013 l 787 898 l 558 898 l 558 597 l 766 597 l 766 482 l 558 482 l 558 115 l 800 115 l 800 0 l 432 0 l 432 260 l 193 260 l 124 0 l 0 0 l 278 1013 l 787 1013 m 359 898 l 222 374 l 432 374 l 432 898 l 359 898 "},"Ã‹":{"x_min":134,"x_max":747.75,"ha":836,"o":"m 134 1013 l 734 1013 l 734 898 l 271 898 l 271 597 l 714 597 l 714 482 l 271 482 l 271 115 l 747 115 l 747 0 l 134 0 l 134 1013 m 229 1269 l 367 1269 l 367 1131 l 229 1131 l 229 1269 m 495 1269 l 632 1269 l 632 1131 l 495 1131 l 495 1269 "},"'":{"x_min":358,"x_max":476,"ha":836,"o":"m 476 1012 l 476 636 l 358 636 l 358 1012 l 476 1012 "},"Âª":{"x_min":183,"x_max":652,"ha":836,"o":"m 463 749 q 324 725 366 749 q 282 649 282 702 q 311 580 282 606 q 389 554 341 554 q 505 602 461 554 q 550 729 550 651 l 550 749 l 463 749 m 647 790 l 647 486 l 550 486 l 550 562 q 472 495 516 517 q 372 473 427 473 q 233 519 284 473 q 183 644 183 565 q 246 779 183 731 q 426 827 309 827 l 550 827 l 550 829 q 509 921 550 890 q 389 953 469 953 q 312 941 355 953 q 225 906 270 929 l 225 993 q 317 1021 271 1012 q 405 1031 362 1031 q 588 972 530 1031 q 647 790 647 914 m 199 401 l 652 401 l 652 318 l 199 318 l 199 401 "},"Ë›":{"x_min":285,"x_max":537.6875,"ha":836,"o":"m 358 0 l 438 0 q 393 -71 408 -41 q 379 -122 379 -101 q 397 -169 379 -153 q 452 -185 416 -185 q 495 -179 474 -185 q 537 -164 516 -174 l 537 -254 q 488 -264 511 -261 q 445 -268 465 -268 q 323 -238 362 -268 q 285 -146 285 -209 q 302 -78 285 -113 q 358 0 320 -42 "},"Ã°":{"x_min":93,"x_max":743.25,"ha":836,"o":"m 486 899 q 681 626 619 755 q 743 362 743 497 q 658 80 743 180 q 417 -20 573 -20 q 178 80 263 -20 q 93 362 93 180 q 178 641 93 541 q 415 742 263 742 q 449 742 438 742 q 472 739 461 742 q 425 800 449 770 q 375 860 400 830 l 185 798 l 165 864 l 326 919 l 202 1055 l 351 1055 l 437 956 l 633 1020 l 655 953 l 486 899 m 537 622 q 486 635 514 631 q 427 640 458 640 q 277 568 328 640 q 225 362 225 497 q 275 157 225 229 q 417 85 325 85 q 560 157 510 85 q 611 362 611 229 q 591 506 611 437 q 537 622 571 574 "},"T":{"x_min":32,"x_max":804,"ha":836,"o":"m 32 1012 l 804 1012 l 804 897 l 488 897 l 488 0 l 350 0 l 350 897 l 32 897 l 32 1012 "},"Ãž":{"x_min":136,"x_max":790,"ha":836,"o":"m 273 717 l 273 361 l 432 361 q 592 405 539 361 q 646 539 646 450 q 592 672 646 628 q 432 717 539 717 l 273 717 m 136 1013 l 273 1013 l 273 830 l 445 830 q 706 758 622 830 q 790 539 790 687 q 706 319 790 390 q 445 249 622 249 l 273 249 l 273 0 l 136 0 l 136 1013 "},"j":{"x_min":126,"x_max":532,"ha":836,"o":"m 407 -13 l 407 663 l 192 663 l 192 760 l 532 760 l 532 -13 q 471 -217 532 -145 q 298 -289 410 -289 l 126 -289 l 126 -183 l 284 -183 q 376 -140 345 -183 q 407 -13 407 -98 m 407 1055 l 532 1055 l 532 897 l 407 897 l 407 1055 "},"1":{"x_min":166.78125,"x_max":742,"ha":836,"o":"m 183 115 l 396 115 l 396 888 l 166 837 l 166 962 l 394 1012 l 532 1012 l 532 115 l 742 115 l 742 0 l 183 0 l 183 115 "},"â€º":{"x_min":285,"x_max":603,"ha":836,"o":"m 285 718 l 603 434 l 603 379 l 285 95 l 285 225 l 489 406 l 285 588 l 285 718 "},"Ã¤":{"x_min":90,"x_max":718,"ha":836,"o":"m 475 381 l 434 381 q 270 342 325 381 q 215 228 215 304 q 256 121 215 159 q 370 84 297 84 q 533 155 474 84 q 592 353 592 227 l 592 381 l 475 381 m 718 433 l 718 0 l 592 0 l 592 111 q 491 12 552 44 q 344 -20 431 -20 q 159 45 228 -20 q 90 220 90 110 q 175 413 90 347 q 425 479 260 479 l 592 479 l 592 498 q 546 630 592 589 q 401 672 501 672 q 272 653 337 672 q 146 599 207 635 l 146 724 q 278 764 215 751 q 401 777 341 777 q 562 750 495 777 q 670 666 629 722 q 707 582 696 632 q 718 433 718 532 m 216 1052 l 354 1052 l 354 915 l 216 915 l 216 1052 m 482 1052 l 619 1052 l 619 915 l 482 915 l 482 1052 "},"<":{"x_min":60,"x_max":777,"ha":836,"o":"m 777 651 l 200 434 l 777 219 l 777 95 l 60 379 l 60 491 l 777 775 l 777 651 "},"Â£":{"x_min":94,"x_max":754,"ha":836,"o":"m 740 991 l 740 867 q 654 912 697 897 q 566 927 612 927 q 432 866 475 927 q 390 675 390 805 l 390 528 l 641 528 l 641 431 l 390 431 l 390 115 l 754 115 l 754 0 l 94 0 l 94 115 l 254 115 l 254 431 l 119 431 l 119 528 l 254 528 l 254 689 q 328 946 254 861 q 553 1031 402 1031 q 644 1021 597 1031 q 740 991 690 1011 "},"Â¹":{"x_min":233.78125,"x_max":621,"ha":836,"o":"m 246 528 l 385 528 l 385 942 l 233 914 l 233 993 l 389 1019 l 483 1019 l 483 528 l 621 528 l 621 453 l 246 453 l 246 528 "},"t":{"x_min":89,"x_max":700,"ha":836,"o":"m 417 975 l 417 760 l 700 760 l 700 663 l 417 663 l 417 250 q 448 133 417 166 q 559 100 480 100 l 700 100 l 700 0 l 547 0 q 349 56 407 0 q 292 250 292 112 l 292 663 l 89 663 l 89 760 l 292 760 l 292 975 l 417 975 "},"Â¬":{"x_min":60.09375,"x_max":777,"ha":836,"o":"m 60 585 l 777 585 l 777 251 l 663 251 l 663 468 l 60 468 l 60 585 "},"Ã¹":{"x_min":132,"x_max":712,"ha":836,"o":"m 132 287 l 132 758 l 257 758 l 257 287 q 293 137 257 185 q 405 89 329 89 q 540 151 493 89 q 587 328 587 213 l 587 758 l 712 758 l 712 0 l 587 0 l 587 114 q 496 14 553 48 q 362 -20 439 -20 q 188 56 245 -20 q 132 287 132 132 m 323 1111 l 513 856 l 409 856 l 189 1111 l 323 1111 "},"W":{"x_min":0,"x_max":836.1875,"ha":836,"o":"m 0 1013 l 133 1013 l 230 190 l 345 735 l 488 735 l 605 189 l 702 1013 l 836 1013 l 684 0 l 555 0 l 417 601 l 280 0 l 151 0 l 0 1013 "},"Ã¯":{"x_min":121,"x_max":741,"ha":836,"o":"m 173 760 l 493 760 l 493 97 l 741 97 l 741 0 l 121 0 l 121 97 l 368 97 l 368 663 l 173 663 l 173 760 m 216 1053 l 354 1053 l 354 916 l 216 916 l 216 1053 m 482 1053 l 619 1053 l 619 916 l 482 916 l 482 1053 "},">":{"x_min":60,"x_max":777,"ha":836,"o":"m 60 651 l 60 775 l 777 491 l 777 379 l 60 95 l 60 219 l 636 434 l 60 651 "},"v":{"x_min":67.8125,"x_max":768.359375,"ha":836,"o":"m 67 760 l 197 760 l 417 122 l 638 760 l 768 760 l 498 0 l 337 0 l 67 760 "},"Ã»":{"x_min":132,"x_max":712,"ha":836,"o":"m 132 287 l 132 758 l 257 758 l 257 287 q 293 137 257 185 q 405 89 329 89 q 540 151 493 89 q 587 328 587 213 l 587 758 l 712 758 l 712 0 l 587 0 l 587 114 q 496 14 553 48 q 362 -20 439 -20 q 188 56 245 -20 q 132 287 132 132 m 368 1111 l 467 1111 l 634 856 l 540 856 l 417 1022 l 295 856 l 201 856 l 368 1111 "},"Ã’":{"x_min":79,"x_max":756,"ha":836,"o":"m 613 505 q 567 824 613 728 q 417 920 521 920 q 267 824 313 920 q 222 505 222 728 q 267 186 222 282 q 417 91 313 91 q 567 186 521 91 q 613 505 613 281 m 756 505 q 672 110 756 240 q 417 -20 588 -20 q 162 109 245 -20 q 79 505 79 239 q 162 900 79 770 q 417 1031 246 1031 q 672 900 588 1031 q 756 505 756 770 m 379 1288 l 513 1109 l 409 1109 l 255 1288 l 379 1288 "},"&":{"x_min":39,"x_max":828.25,"ha":836,"o":"m 371 614 l 653 235 q 691 319 679 268 q 704 441 704 370 q 704 510 704 462 l 702 515 l 814 515 l 814 488 q 788 296 814 379 q 712 154 763 214 l 828 -1 l 683 -1 l 631 73 q 511 2 575 25 q 376 -20 448 -20 q 134 71 230 -20 q 39 300 39 162 q 85 472 39 393 q 227 620 132 552 q 177 715 193 668 q 161 810 161 762 q 228 971 161 912 q 413 1030 295 1030 q 501 1021 457 1030 q 593 998 545 1013 l 593 874 q 510 913 553 900 q 421 926 468 926 q 317 895 355 926 q 280 812 280 864 q 299 728 280 772 q 371 614 319 684 m 282 544 q 189 439 220 494 q 158 321 158 383 q 225 151 158 219 q 399 84 293 84 q 458 92 427 84 q 520 115 490 100 q 550 133 538 126 q 572 150 562 141 l 282 544 "},"Ë�":{"x_min":233.296875,"x_max":710.046875,"ha":836,"o":"m 362 1111 l 478 1111 l 326 856 l 233 856 l 362 1111 m 588 1111 l 710 1111 l 541 856 l 450 856 l 588 1111 "},"Ã�":{"x_min":5,"x_max":747,"ha":836,"o":"m 295 1013 q 637 889 527 1013 q 747 505 747 766 q 636 123 747 246 q 295 0 526 0 l 90 0 l 90 481 l 5 481 l 5 582 l 90 582 l 90 1013 l 295 1013 m 295 113 q 536 198 468 113 q 605 505 605 283 q 536 814 605 729 q 295 900 468 900 l 230 900 l 230 582 l 409 582 l 409 481 l 230 481 l 230 113 l 295 113 "},"I":{"x_min":136,"x_max":698,"ha":836,"o":"m 136 1013 l 698 1013 l 698 898 l 486 898 l 486 115 l 698 115 l 698 0 l 136 0 l 136 115 l 348 115 l 348 898 l 136 898 l 136 1013 "},"G":{"x_min":69,"x_max":749,"ha":836,"o":"m 749 82 q 625 6 694 32 q 476 -20 556 -20 q 176 118 283 -20 q 69 505 69 256 q 177 892 69 753 q 479 1031 286 1031 q 601 1013 543 1031 q 714 958 659 995 l 714 818 q 601 895 659 870 q 479 920 543 920 q 278 816 345 920 q 212 505 212 712 q 276 192 212 294 q 476 91 341 91 q 555 101 521 91 q 618 134 590 112 l 618 406 l 470 406 l 470 519 l 749 519 l 749 82 "},"`":{"x_min":189.203125,"x_max":514.046875,"ha":836,"o":"m 323 1111 l 514 856 l 409 856 l 189 1111 l 323 1111 "},"Â·":{"x_min":332,"x_max":503,"ha":836,"o":"m 332 586 l 503 586 l 503 379 l 332 379 l 332 586 "},"r":{"x_min":245,"x_max":782.328125,"ha":836,"o":"m 782 603 q 700 648 742 634 q 610 663 659 663 q 431 589 493 663 q 370 377 370 516 l 370 0 l 245 0 l 245 760 l 370 760 l 370 611 q 465 735 401 692 q 619 778 530 778 q 705 766 665 778 q 782 730 745 755 l 782 603 "},"Â¿":{"x_min":131,"x_max":670.828125,"ha":836,"o":"m 372 740 l 501 740 l 501 636 q 480 523 501 569 q 402 421 459 476 l 341 360 q 283 291 299 320 q 268 227 268 261 q 312 130 268 167 q 430 93 356 93 q 543 116 483 93 q 670 185 604 139 l 670 58 q 542 0 607 19 q 407 -18 477 -18 q 205 47 280 -18 q 131 221 131 112 q 153 317 131 272 q 240 424 176 361 l 299 482 q 357 554 345 525 q 370 625 370 582 q 370 628 370 626 q 372 657 372 644 l 372 740 m 505 841 l 368 841 l 368 1013 l 505 1013 l 505 841 "},"Ã½":{"x_min":70.75,"x_max":782.140625,"ha":836,"o":"m 582 243 q 502 34 550 164 q 412 -183 435 -144 q 334 -262 381 -236 q 225 -289 287 -289 l 125 -289 l 125 -185 l 198 -185 q 285 -153 253 -185 q 364 11 316 -121 l 70 759 l 202 759 l 428 165 l 649 760 l 782 760 l 582 243 m 512 1111 l 647 1111 l 426 856 l 322 856 l 512 1111 "},"x":{"x_min":51.546875,"x_max":784.640625,"ha":836,"o":"m 758 760 l 486 396 l 784 0 l 640 0 l 417 304 l 195 0 l 51 0 l 349 396 l 77 760 l 216 760 l 417 485 l 617 760 l 758 760 "},"Ã¨":{"x_min":83,"x_max":754,"ha":836,"o":"m 754 411 l 754 350 l 213 350 l 213 345 q 277 153 213 221 q 460 85 342 85 q 585 104 520 85 q 725 162 651 123 l 725 38 q 587 -5 653 9 q 459 -20 521 -20 q 182 86 282 -20 q 83 378 83 192 q 180 669 83 560 q 441 777 278 777 q 670 679 586 777 q 754 411 754 581 m 628 447 q 578 614 628 557 q 436 672 529 672 q 287 612 345 672 q 217 447 228 552 l 628 447 m 332 1111 l 523 856 l 418 856 l 198 1111 l 332 1111 "},"Âº":{"x_min":165,"x_max":670,"ha":836,"o":"m 417 952 q 308 899 347 952 q 270 751 270 846 q 308 605 270 657 q 417 553 347 553 q 525 606 485 553 q 565 751 565 659 q 526 899 565 846 q 417 952 487 952 m 417 1031 q 601 955 532 1031 q 670 751 670 879 q 601 549 670 625 q 417 474 533 474 q 233 549 301 474 q 165 751 165 625 q 233 955 165 879 q 417 1031 302 1031 m 187 401 l 645 401 l 645 318 l 187 318 l 187 401 "},"Ã˜":{"x_min":5.078125,"x_max":812.953125,"ha":836,"o":"m 250 205 q 315 121 271 152 q 415 91 359 91 q 564 186 519 91 q 610 505 610 281 q 610 626 610 579 q 599 702 610 672 l 250 205 m 228 319 l 570 807 q 514 891 553 862 q 417 920 475 920 q 267 820 311 920 q 223 465 223 721 q 223 376 223 410 q 228 319 223 342 m 699 846 q 741 703 726 791 q 756 505 756 615 q 672 110 756 240 q 416 -20 588 -20 q 273 7 334 -20 q 171 89 212 34 l 74 -47 l 5 0 l 125 170 q 91 308 104 220 q 79 505 79 397 q 162 900 79 770 q 417 1031 246 1031 q 554 1003 495 1031 q 651 921 612 975 l 745 1057 l 812 1007 l 699 846 "},"âˆž":{"x_min":28,"x_max":809,"ha":836,"o":"m 471 425 q 540 299 509 333 q 613 266 571 266 q 692 311 661 266 q 723 429 723 356 q 694 545 723 502 q 618 589 666 589 q 538 549 573 589 q 471 425 502 509 m 364 431 q 295 555 326 521 q 222 589 264 589 q 143 543 174 589 q 113 427 113 498 q 141 309 113 353 q 215 266 169 266 q 296 305 260 266 q 364 431 332 345 m 418 518 q 500 640 450 597 q 611 684 549 684 q 750 609 692 684 q 809 427 809 535 q 753 241 809 313 q 613 170 698 170 q 513 204 556 170 q 416 326 469 238 q 328 206 372 242 q 225 170 283 170 q 84 242 140 170 q 28 427 28 315 q 81 614 28 544 q 224 684 134 684 q 334 645 288 684 q 418 518 380 606 "},"Ã·":{"x_min":60,"x_max":777,"ha":836,"o":"m 335 268 l 501 268 l 501 102 l 335 102 l 335 268 m 335 770 l 501 770 l 501 603 l 335 603 l 335 770 m 60 493 l 777 493 l 777 378 l 60 378 l 60 493 "},"h":{"x_min":132,"x_max":712,"ha":836,"o":"m 712 470 l 712 0 l 587 0 l 587 470 q 551 620 587 572 q 438 669 515 669 q 304 606 351 669 q 257 429 257 544 l 257 0 l 132 0 l 132 1055 l 257 1055 l 257 645 q 347 744 290 710 q 481 778 403 778 q 654 701 597 778 q 712 470 712 625 "},".":{"x_min":332,"x_max":503,"ha":836,"o":"m 332 207 l 503 207 l 503 0 l 332 0 l 332 207 "},";":{"x_min":273.671875,"x_max":512,"ha":836,"o":"m 341 205 l 512 205 l 512 64 l 378 -195 l 273 -195 l 341 64 l 341 205 m 332 721 l 503 721 l 503 515 l 332 515 l 332 721 "},"f":{"x_min":132,"x_max":721,"ha":836,"o":"m 721 1055 l 721 951 l 579 951 q 486 923 512 951 q 460 826 460 896 l 460 759 l 721 759 l 721 662 l 460 662 l 460 0 l 335 0 l 335 662 l 132 662 l 132 759 l 335 759 l 335 811 q 392 995 335 936 q 571 1055 449 1055 l 721 1055 "},"â€œ":{"x_min":143,"x_max":693.46875,"ha":836,"o":"m 627 655 l 456 655 l 456 795 l 589 1055 l 693 1055 l 627 795 l 627 655 m 315 655 l 143 655 l 143 795 l 277 1055 l 381 1055 l 315 795 l 315 655 "},"A":{"x_min":25.09375,"x_max":811.09375,"ha":836,"o":"m 417 892 l 273 374 l 562 374 l 417 892 m 335 1012 l 501 1012 l 811 0 l 669 0 l 594 264 l 240 264 l 166 0 l 25 0 l 335 1012 "},"6":{"x_min":90,"x_max":746,"ha":836,"o":"m 672 990 l 672 864 q 581 902 629 889 q 480 916 532 916 q 283 817 350 916 q 216 528 216 719 q 306 632 248 596 q 438 669 363 669 q 665 579 585 669 q 746 324 746 489 q 663 70 746 160 q 430 -20 580 -20 q 172 106 254 -20 q 90 505 90 233 q 188 896 90 761 q 474 1031 287 1031 q 575 1020 524 1031 q 672 990 625 1010 m 427 562 q 289 498 340 562 q 239 324 239 435 q 289 150 239 213 q 427 87 340 87 q 564 147 518 87 q 611 324 611 207 q 564 502 611 442 q 427 562 518 562 "},"â€˜":{"x_min":314,"x_max":551.46875,"ha":836,"o":"m 485 655 l 314 655 l 314 795 l 447 1055 l 551 1055 l 485 795 l 485 655 "},"O":{"x_min":79,"x_max":756,"ha":836,"o":"m 613 505 q 567 824 613 728 q 417 920 521 920 q 267 824 313 920 q 222 505 222 728 q 267 186 222 282 q 417 91 313 91 q 567 186 521 91 q 613 505 613 281 m 756 505 q 672 110 756 240 q 417 -20 588 -20 q 162 109 245 -20 q 79 505 79 239 q 162 900 79 770 q 417 1031 246 1031 q 672 900 588 1031 q 756 505 756 770 "},"n":{"x_min":132,"x_max":712,"ha":836,"o":"m 712 470 l 712 0 l 587 0 l 587 470 q 551 620 587 572 q 438 669 515 669 q 304 606 351 669 q 257 429 257 544 l 257 0 l 132 0 l 132 760 l 257 760 l 257 645 q 347 744 290 710 q 481 778 403 778 q 654 701 597 778 q 712 470 712 625 "},"3":{"x_min":92.796875,"x_max":732,"ha":836,"o":"m 525 541 q 678 447 625 514 q 732 278 732 379 q 638 59 732 139 q 377 -20 544 -20 q 235 -7 307 -20 q 92 30 162 5 l 92 166 q 229 112 161 130 q 362 95 296 95 q 535 145 475 95 q 596 292 596 196 q 535 432 596 380 q 372 484 475 484 l 268 484 l 268 597 l 372 597 q 519 638 466 597 q 572 754 572 679 q 522 874 572 832 q 382 916 473 916 q 258 902 322 916 q 123 861 193 888 l 123 987 q 269 1020 205 1009 q 382 1031 333 1031 q 619 956 530 1031 q 708 759 708 882 q 661 619 708 675 q 525 541 614 564 "},"9":{"x_min":86,"x_max":742,"ha":836,"o":"m 404 449 q 541 512 491 449 q 591 686 591 575 q 541 860 591 797 q 404 924 491 924 q 267 863 313 924 q 221 686 221 803 q 266 508 221 568 q 404 449 312 449 m 160 20 l 160 146 q 250 108 202 121 q 351 95 299 95 q 548 193 481 95 q 615 482 615 291 q 525 378 583 414 q 393 342 467 342 q 166 432 246 342 q 86 687 86 522 q 168 941 86 851 q 401 1031 250 1031 q 659 904 577 1031 q 742 505 742 777 q 643 114 742 249 q 356 -20 544 -20 q 257 -9 307 -20 q 160 20 206 0 "},"l":{"x_min":108.9375,"x_max":702,"ha":836,"o":"m 434 275 q 464 148 434 191 q 556 105 495 105 l 702 105 l 702 0 l 543 0 q 370 71 431 0 q 309 275 309 143 l 309 965 l 108 965 l 108 1063 l 434 1063 l 434 275 "},"Â¤":{"x_min":139.125,"x_max":746.5625,"ha":836,"o":"m 589 436 q 546 539 589 497 q 443 581 504 581 q 339 539 381 581 q 297 436 297 497 q 339 331 297 373 q 443 289 381 289 q 546 331 504 289 q 589 436 589 374 m 572 627 l 685 739 l 746 676 l 633 564 q 664 499 654 530 q 674 435 674 467 q 663 370 674 401 q 632 308 653 339 l 746 195 l 682 132 l 569 245 q 507 214 538 224 q 443 204 476 204 q 377 213 410 204 q 312 242 345 223 l 201 132 l 139 193 l 251 305 q 220 372 230 340 q 211 435 211 403 q 221 500 211 468 q 252 562 231 532 l 139 675 l 202 739 l 315 625 q 377 656 346 646 q 443 667 408 667 q 506 657 474 667 q 572 627 538 647 "},"âˆ‚":{"x_min":129,"x_max":710,"ha":836,"o":"m 570 421 q 585 535 580 480 q 591 641 591 591 q 566 773 591 729 q 492 818 541 818 q 406 778 455 818 q 333 739 358 739 q 293 753 309 739 q 277 790 277 768 q 325 865 277 832 q 443 899 374 899 q 637 793 565 899 q 710 510 710 688 q 612 132 710 282 q 369 -17 514 -17 q 197 56 266 -17 q 129 240 129 129 q 203 461 129 374 q 388 549 278 549 q 500 518 456 549 q 570 421 544 487 m 537 335 q 507 456 537 414 q 425 499 478 499 q 303 411 351 499 q 256 183 256 323 q 285 62 256 104 q 368 21 314 21 q 489 109 442 21 q 537 335 537 197 "},"4":{"x_min":68.71875,"x_max":768.953125,"ha":836,"o":"m 498 887 l 178 352 l 498 352 l 498 887 m 475 1011 l 634 1011 l 634 352 l 768 352 l 768 241 l 634 241 l 634 0 l 498 0 l 498 241 l 68 241 l 68 370 l 475 1011 "},"p":{"x_min":129,"x_max":752,"ha":836,"o":"m 254 95 l 254 -289 l 129 -289 l 129 760 l 254 760 l 254 662 q 337 748 285 719 q 457 778 389 778 q 673 671 595 778 q 752 376 752 564 q 673 85 752 191 q 457 -19 594 -19 q 335 9 387 -19 q 254 95 283 39 m 621 379 q 575 598 621 524 q 438 672 529 672 q 300 597 347 672 q 254 379 254 523 q 300 160 254 235 q 438 86 347 86 q 575 159 529 86 q 621 379 621 233 "},"â€¡":{"x_min":110,"x_max":726,"ha":836,"o":"m 726 151 l 478 151 l 478 -134 l 358 -134 l 358 151 l 110 151 l 110 255 l 358 255 l 358 624 l 110 624 l 110 728 l 358 728 l 358 1012 l 478 1012 l 478 728 l 726 728 l 726 624 l 478 624 l 478 255 l 726 255 l 726 151 "},"Ã ":{"x_min":90,"x_max":718,"ha":836,"o":"m 475 381 l 434 381 q 270 342 325 381 q 215 228 215 304 q 256 121 215 159 q 370 84 297 84 q 533 155 474 84 q 592 353 592 227 l 592 381 l 475 381 m 718 433 l 718 0 l 592 0 l 592 111 q 491 12 552 44 q 344 -20 431 -20 q 159 45 228 -20 q 90 220 90 110 q 175 413 90 347 q 425 479 260 479 l 592 479 l 592 498 q 546 630 592 589 q 401 672 501 672 q 272 653 337 672 q 146 599 207 635 l 146 724 q 278 764 215 751 q 401 777 341 777 q 562 750 495 777 q 670 666 629 722 q 707 582 696 632 q 718 433 718 532 m 323 1110 l 514 856 l 409 856 l 189 1110 l 323 1110 "},"Ãœ":{"x_min":100,"x_max":736,"ha":836,"o":"m 100 388 l 100 1012 l 238 1012 l 238 325 q 242 220 238 251 q 256 171 246 188 q 318 111 277 131 q 417 91 359 91 q 517 111 476 91 q 580 171 558 131 q 594 219 590 188 q 599 324 599 251 l 599 388 l 599 1012 l 736 1012 l 736 388 q 716 167 736 232 q 649 59 697 102 q 547 0 605 19 q 417 -20 489 -20 q 288 0 346 -20 q 185 59 231 19 q 119 168 139 101 q 100 388 100 234 m 216 1268 l 354 1268 l 354 1130 l 216 1130 l 216 1268 m 482 1268 l 619 1268 l 619 1130 l 482 1130 l 482 1268 "},"Ã³":{"x_min":93,"x_max":743.25,"ha":836,"o":"m 417 672 q 274 598 322 672 q 225 378 225 524 q 274 160 225 234 q 417 85 322 85 q 562 160 513 85 q 611 378 611 234 q 562 598 611 524 q 417 672 513 672 m 417 777 q 659 675 575 777 q 743 378 743 572 q 659 82 743 184 q 417 -20 576 -20 q 176 82 259 -20 q 93 378 93 184 q 176 675 93 572 q 417 777 259 777 m 512 1110 l 646 1110 l 426 856 l 322 856 l 512 1110 "},"âˆš":{"x_min":40.0625,"x_max":803,"ha":836,"o":"m 67 497 l 40 582 l 237 648 l 385 153 l 702 1151 l 803 1151 l 803 1062 l 771 1062 l 427 -26 l 341 -26 l 175 533 l 67 497 "}}}
